<svg width="112" height="112" fill="none" xmlns="http://www.w3.org/2000/svg"><path d="M31.711 41.125a1.531 1.531 0 1 1 0-3.063h.664a1.531 1.531 0 1 1 0 3.063h-.664zm67.237-22.163a1.529 1.529 0 0 0-1.531-1.531h-5.244a1.53 1.53 0 1 0 0 3.062h3.712v17.57H38.281a1.531 1.531 0 1 0 0 3.062h57.604v21.438a1.532 1.532 0 0 0 3.063 0v-43.6zm-58.995-1.535H76.64v-2.114a5.469 5.469 0 1 1 10.938 0v7.29a5.469 5.469 0 0 1-10.938 0V20.49H39.953a1.531 1.531 0 0 1 0-3.063zm39.75 5.177a2.407 2.407 0 0 0 4.813 0v-7.291a2.406 2.406 0 1 0-4.812 0v7.29zM98.5 88.947l-12.761 12.76a1.527 1.527 0 0 1-1.083.449H14.584a1.531 1.531 0 0 1-1.531-1.531V18.959a1.53 1.53 0 0 1 1.53-1.532h9.838v-2.114a5.469 5.469 0 1 1 10.938 0v7.29a5.469 5.469 0 0 1-10.938 0V20.49h-8.306v17.573h9.838a1.531 1.531 0 1 1 0 3.062h-9.838v57.969h67.907l9.698-9.698h-7.532v4.411a1.531 1.531 0 1 1-3.063 0v-5.942a1.531 1.531 0 0 1 1.531-1.531h11.23V73.937a1.532 1.532 0 0 1 3.062 0v13.928a1.529 1.529 0 0 1-.448 1.082zM27.484 22.604a2.407 2.407 0 0 0 4.812 0v-7.291a2.407 2.407 0 0 0-4.812 0v7.29zm71.464 45.1a1.53 1.53 0 1 0-3.063 0v.765a1.531 1.531 0 0 0 3.063 0v-.766zm-61.768-9.08a1.531 1.531 0 0 1-1.532 1.531h-7.875a1.532 1.532 0 0 1-1.53-1.531V50.75a1.533 1.533 0 0 1 1.53-1.531h7.875a1.531 1.531 0 0 1 1.532 1.531v7.875zm-3.063-6.344h-4.812v4.813h4.812V52.28zm8.32 6.344V50.75a1.532 1.532 0 0 1 1.532-1.531h7.875a1.532 1.532 0 0 1 1.531 1.531v7.875a1.532 1.532 0 0 1-1.531 1.531h-7.875a1.532 1.532 0 0 1-1.531-1.531zm3.063-1.531h4.813V52.28H45.5v4.813zm14.662-7.875a1.53 1.53 0 0 0-1.537 1.531v7.875a1.532 1.532 0 0 0 1.531 1.531h7.875a1.532 1.532 0 0 0 1.532-1.531V50.75a1.531 1.531 0 1 0-3.063 0v6.344h-4.812V50.75a1.532 1.532 0 0 0-1.529-1.531h.003zm14.658 9.406V50.75a1.531 1.531 0 0 1 1.532-1.531h7.875a1.532 1.532 0 0 1 1.531 1.531v7.875a1.532 1.532 0 0 1-1.531 1.531h-7.875a1.531 1.531 0 0 1-1.532-1.531zm3.063-1.531h4.813V52.28h-4.813v4.813zM37.18 66.062a1.531 1.531 0 0 0-1.532-1.53h-7.875a1.532 1.532 0 0 0 0 3.062h6.344v4.812h-6.343a1.532 1.532 0 0 0 0 3.063h7.874a1.531 1.531 0 0 0 1.532-1.531v-7.876zm5.255 0a1.532 1.532 0 0 1 1.531-1.53h7.875a1.532 1.532 0 0 1 1.534 1.53v7.876a1.532 1.532 0 0 1-1.531 1.53h-7.875a1.532 1.532 0 0 1-1.531-1.53l-.003-7.876zm3.065 6.344h4.813v-4.812H45.5v4.812zm13.125-6.344a1.532 1.532 0 0 1 1.531-1.53h7.875a1.533 1.533 0 0 1 1.532 1.53v7.876a1.532 1.532 0 0 1-1.532 1.53h-7.875a1.532 1.532 0 0 1-1.53-1.53v-7.876zm3.063 6.344H66.5v-4.812h-4.812v4.812zm13.132-6.344a1.531 1.531 0 0 1 1.532-1.53h7.875a1.532 1.532 0 0 1 1.531 1.53v7.876a1.532 1.532 0 0 1-1.531 1.53h-7.875a1.531 1.531 0 0 1-1.532-1.53v-7.876zm3.063 6.344h4.813v-4.812h-4.813v4.812zM37.18 81.375v7.875a1.531 1.531 0 0 1-1.532 1.531h-7.875a1.532 1.532 0 0 1-1.53-1.531v-7.875a1.533 1.533 0 0 1 1.53-1.531h7.875a1.531 1.531 0 0 1 1.532 1.531zm-3.063 1.531h-4.812v4.813h4.812v-4.813zm8.32-1.531a1.532 1.532 0 0 1 1.532-1.531h7.875a1.532 1.532 0 0 1 1.531 1.531v7.875a1.532 1.532 0 0 1-1.531 1.531h-7.875a1.532 1.532 0 0 1-1.531-1.531v-7.875zm3.063 6.344h4.813v-4.813H45.5v4.813zm13.125-6.344a1.532 1.532 0 0 1 1.531-1.531h7.875a1.532 1.532 0 0 1 1.532 1.531v7.875a1.532 1.532 0 0 1-1.532 1.531h-7.875a1.532 1.532 0 0 1-1.53-1.531v-7.875zm3.063 6.344H66.5v-4.813h-4.812v4.813z" fill="#157BC0"/></svg>