<svg width="112" height="112" fill="none" xmlns="http://www.w3.org/2000/svg"><path d="M11.375 96.09H38.85V74.146h-5.705v12.553a1.53 1.53 0 1 1-3.063 0V74.145H11.375a1.531 1.531 0 1 1 0-3.063h29.003a1.521 1.521 0 0 1 1.156.538l5.928-7.026a1.534 1.534 0 0 1 1.17-.544h19.566a8.575 8.575 0 0 1 8.427 7.031h3.098l10.864-6.069a14.78 14.78 0 0 1 7.193-1.875h1.488a2.885 2.885 0 0 1 2.012 4.948L86.275 82.718a22.057 22.057 0 0 1-13.044 6.125c-.03 0-.06.006-.087.007l-26.122 1.2h-.07a1.532 1.532 0 0 1-.07-3.063l26.075-1.197a18.979 18.979 0 0 0 11.182-5.263l14.7-14.33h-1.05a11.699 11.699 0 0 0-5.699 1.488L80.87 73.95a1.53 1.53 0 0 1-.748.194h-4.707l-16.63 4.08a1.532 1.532 0 0 1-.73-2.973l15.516-3.81a5.512 5.512 0 0 0-5.373-4.331H49.344l-7.431 8.814v21.7a1.53 1.53 0 0 1-1.532 1.532H11.375a1.531 1.531 0 1 1 0-3.063v-.003zm21.77-4.142v-.802a1.531 1.531 0 1 0-3.063 0v.802a1.53 1.53 0 1 0 3.063 0zM58.879 17.04a1.532 1.532 0 1 0 1.776 2.495 19.6 19.6 0 1 1-6.717 8.363 1.531 1.531 0 1 0-2.821-1.193 22.704 22.704 0 1 0 7.762-9.665zm-4.483 6.693a1.532 1.532 0 0 0 2.15-.267c.117-.152.237-.3.36-.447a1.532 1.532 0 0 0-2.355-1.959c-.144.175-.284.35-.422.525a1.531 1.531 0 0 0 .267 2.148zm16.1 21.097v-7.934a7.092 7.092 0 0 1 0-13.845v-2.577a1.531 1.531 0 1 1 3.063 0v2.566a7.107 7.107 0 0 1 5.582 6.931 1.531 1.531 0 1 1-3.062 0 4.037 4.037 0 0 0-2.52-3.734v7.937a7.093 7.093 0 0 1 0 13.86v2.567a1.53 1.53 0 1 1-3.063 0V48.03a7.107 7.107 0 0 1-5.55-6.923 1.531 1.531 0 1 1 3.063 0 4.04 4.04 0 0 0 2.484 3.724h.003zm3.063.01a4.025 4.025 0 0 0 0-7.468v7.468zM70.496 33.7v-7.45a4.033 4.033 0 0 0 0 7.45z" fill="#157BC0"/></svg>