<svg width="112" height="112" fill="none" xmlns="http://www.w3.org/2000/svg"><path d="M47.254 90.032a1.532 1.532 0 1 1-.068-3.062l.867-.04a1.533 1.533 0 0 1 .141 3.063l-.868.04h-.072zm-15.64-10.334a1.532 1.532 0 0 0-1.532 1.53v14.863H11.375a1.532 1.532 0 0 0 0 3.062h29.003a1.531 1.531 0 0 0 1.531-1.53v-21.7l7.438-8.812h18.851a5.507 5.507 0 0 1 5.373 4.33l-15.517 3.81a1.53 1.53 0 1 0 .73 2.973l16.632-4.08h4.706c.262 0 .519-.066.747-.194l11.213-6.269a11.7 11.7 0 0 1 5.698-1.487h1.05L84.132 80.526a18.988 18.988 0 0 1-11.181 5.263l-19.48.894a1.532 1.532 0 0 0 .07 3.062h.071l19.524-.897c.03 0 .06 0 .088-.007a22.066 22.066 0 0 0 13.051-6.122l15.012-14.639a2.879 2.879 0 0 0 .658-3.15 2.88 2.88 0 0 0-2.67-1.797h-1.488a14.77 14.77 0 0 0-7.193 1.875l-10.871 6.074h-3.098a8.576 8.576 0 0 0-8.427-7.031H48.633a1.534 1.534 0 0 0-1.171.543l-5.928 7.027a1.519 1.519 0 0 0-1.156-.539H11.375a1.532 1.532 0 0 0 0 3.063H38.85V96.09h-5.705V81.229a1.532 1.532 0 0 0-1.531-1.531zm19.413-43.87a4.626 4.626 0 0 0 2.976-.409V56.7a1.532 1.532 0 0 0 1.532 1.531h33.278a1.532 1.532 0 0 0 1.53-1.53V39.593a1.531 1.531 0 0 0-3.062 0v15.575h-5.488V40.525a1.532 1.532 0 0 0-1.531-1.531H64.084a1.53 1.53 0 0 0-1.531 1.53v10.372a1.531 1.531 0 1 0 3.062 0V42.06h13.116v13.116H57.066V33.403l15.107-10.21 17.63 11.916a4.69 4.69 0 1 0 5.25-7.768l-20.254-13.69a4.662 4.662 0 0 0-5.25 0l-7.788 5.262a1.532 1.532 0 0 0 1.715 2.538l7.787-5.263a1.616 1.616 0 0 1 1.82 0l20.255 13.69a1.627 1.627 0 0 1 .438 2.257 1.662 1.662 0 0 1-2.257.438L73.03 20.076a1.532 1.532 0 0 0-1.715 0L54.681 31.32l-1.85 1.25a1.626 1.626 0 1 1-1.82-2.695l3.642-2.461a1.53 1.53 0 1 0-1.715-2.538l-3.641 2.462a4.689 4.689 0 0 0 1.734 8.487l-.004.003zm7.039-11.037c.305 0 .604-.09.856-.262l.545-.368a1.531 1.531 0 1 0-1.715-2.538l-.544.368a1.53 1.53 0 0 0 .858 2.8z" fill="#157BC0"/></svg>