<svg width="72" height="94" fill="none" xmlns="http://www.w3.org/2000/svg"><path d="M36 93.049A35.68 35.68 0 0 1 2.564 44.98a1.532 1.532 0 0 1 2.87 1.067 32.632 32.632 0 1 0 6.712-10.866 1.532 1.532 0 1 1-2.241-2.087 35.761 35.761 0 0 1 16.335-9.975l.678-5.896h-3.444a1.53 1.53 0 0 1-1.115-2.58L34.884 1.325a1.58 1.58 0 0 1 2.232 0L49.64 14.643a1.53 1.53 0 0 1-1.115 2.58h-5.163a1.531 1.531 0 1 1 0-3.063h1.619L36 4.61l-8.984 9.55h1.62a1.533 1.533 0 0 1 1.52 1.707l-.746 6.5A35.647 35.647 0 1 1 36 93.049zM8.295 37.41a1.53 1.53 0 0 0-2.121.438 31.77 31.77 0 0 0-.455.71 1.531 1.531 0 1 0 2.598 1.617c.135-.217.274-.438.414-.647a1.53 1.53 0 0 0-.436-2.118zm46.987 35.833c-.132.161-.266.32-.402.477a1.531 1.531 0 0 0 2.313 2.006c.154-.175.305-.356.455-.537a1.533 1.533 0 0 0-1.322-2.534 1.53 1.53 0 0 0-1.041.588h-.003zm3.181-1.718a1.531 1.531 0 0 0 2.08-.599 28.037 28.037 0 1 0-8.128 9.18 1.531 1.531 0 0 0-1.794-2.481 24.93 24.93 0 1 1 7.244-8.181 1.534 1.534 0 0 0 .6 2.081h-.002zM37.531 44.083v11.915a9.04 9.04 0 0 1 0 17.83v3.915a1.53 1.53 0 1 1-3.062 0v-3.922a9.06 9.06 0 0 1-7.499-8.908 1.531 1.531 0 1 1 3.063 0 5.995 5.995 0 0 0 4.436 5.775V58.78a9.04 9.04 0 0 1 0-17.817v-3.922a1.531 1.531 0 1 1 3.062 0v3.915a9.059 9.059 0 0 1 7.543 8.916 1.531 1.531 0 1 1-3.063 0 5.993 5.993 0 0 0-4.48-5.79zm-3.062.011a5.98 5.98 0 0 0 0 11.555V44.094zm3.062 15.03v11.578a5.98 5.98 0 0 0 0-11.578z" fill="#157BC0"/></svg>