<svg width="86" height="94" fill="none" xmlns="http://www.w3.org/2000/svg"><path d="M18.711 32.125a1.531 1.531 0 1 1 0-3.063h.664a1.531 1.531 0 1 1 0 3.063h-.664zM85.948 9.962a1.529 1.529 0 0 0-1.531-1.531h-5.244a1.531 1.531 0 1 0 0 3.062h3.712v17.57H25.281a1.531 1.531 0 1 0 0 3.062h57.604v21.438a1.532 1.532 0 0 0 3.063 0v-43.6zM26.953 8.427H63.64V6.313a5.469 5.469 0 1 1 10.938 0v7.29a5.469 5.469 0 0 1-10.938 0V11.49H26.953a1.531 1.531 0 0 1 0-3.063zm39.75 5.177a2.407 2.407 0 0 0 4.813 0V6.313a2.406 2.406 0 1 0-4.812 0v7.29zM85.5 79.947l-12.761 12.76a1.531 1.531 0 0 1-1.083.45H1.584a1.531 1.531 0 0 1-1.532-1.532V9.959a1.53 1.53 0 0 1 1.532-1.532h9.837V6.313a5.469 5.469 0 1 1 10.938 0v7.29a5.469 5.469 0 0 1-10.938 0V11.49H3.115v17.573h9.838a1.531 1.531 0 1 1 0 3.062H3.115v57.969h67.907l9.698-9.698h-7.532v4.411a1.531 1.531 0 1 1-3.063 0v-5.942a1.531 1.531 0 0 1 1.531-1.531h11.23V64.937a1.532 1.532 0 0 1 3.062 0v13.928a1.529 1.529 0 0 1-.448 1.082zM14.484 13.604a2.407 2.407 0 0 0 4.812 0V6.313a2.407 2.407 0 0 0-4.812 0v7.29zm71.464 45.1a1.53 1.53 0 1 0-3.063 0v.765a1.531 1.531 0 0 0 3.063 0v-.766zm-61.768-9.08a1.531 1.531 0 0 1-1.532 1.531h-7.874a1.532 1.532 0 0 1-1.532-1.531V41.75a1.533 1.533 0 0 1 1.531-1.531h7.875a1.531 1.531 0 0 1 1.532 1.531v7.875zm-3.063-6.344h-4.812v4.813h4.812V43.28zm8.32 6.344V41.75a1.532 1.532 0 0 1 1.532-1.531h7.875a1.532 1.532 0 0 1 1.531 1.531v7.875a1.532 1.532 0 0 1-1.531 1.531h-7.875a1.532 1.532 0 0 1-1.531-1.531zm3.063-1.531h4.813V43.28H32.5v4.813zm14.662-7.875a1.53 1.53 0 0 0-1.537 1.531v7.875a1.532 1.532 0 0 0 1.531 1.531h7.875a1.532 1.532 0 0 0 1.532-1.531V41.75a1.531 1.531 0 1 0-3.063 0v6.344h-4.812V41.75a1.532 1.532 0 0 0-1.529-1.531h.003zm14.659 9.406V41.75a1.531 1.531 0 0 1 1.53-1.531h7.876a1.532 1.532 0 0 1 1.531 1.531v7.875a1.532 1.532 0 0 1-1.531 1.531h-7.875a1.531 1.531 0 0 1-1.531-1.531zm3.062-1.531h4.813V43.28h-4.813v4.813zM24.18 57.062a1.531 1.531 0 0 0-1.532-1.53h-7.874a1.532 1.532 0 0 0 0 3.062h6.343v4.812h-6.344a1.532 1.532 0 0 0 0 3.063h7.875a1.531 1.531 0 0 0 1.532-1.531v-7.876zm5.255 0a1.532 1.532 0 0 1 1.531-1.53h7.875a1.532 1.532 0 0 1 1.534 1.53v7.876a1.532 1.532 0 0 1-1.531 1.53h-7.875a1.532 1.532 0 0 1-1.531-1.53l-.003-7.876zm3.065 6.344h4.813v-4.812H32.5v4.812zm13.125-6.343a1.532 1.532 0 0 1 1.531-1.532h7.875a1.533 1.533 0 0 1 1.532 1.532v7.874a1.532 1.532 0 0 1-1.532 1.532h-7.875a1.532 1.532 0 0 1-1.53-1.531v-7.876zm3.063 6.343H53.5v-4.812h-4.812v4.812zm13.133-6.343a1.531 1.531 0 0 1 1.53-1.532h7.876a1.532 1.532 0 0 1 1.531 1.532v7.874a1.532 1.532 0 0 1-1.531 1.532h-7.875a1.531 1.531 0 0 1-1.531-1.531v-7.876zm3.062 6.343h4.813v-4.812h-4.813v4.812zM24.18 72.375v7.875a1.531 1.531 0 0 1-1.532 1.531h-7.874a1.532 1.532 0 0 1-1.532-1.531v-7.875a1.533 1.533 0 0 1 1.531-1.531h7.875a1.531 1.531 0 0 1 1.532 1.531zm-3.063 1.531h-4.812v4.813h4.812v-4.813zm8.32-1.531a1.532 1.532 0 0 1 1.532-1.531h7.875a1.532 1.532 0 0 1 1.531 1.531v7.875a1.532 1.532 0 0 1-1.531 1.531h-7.875a1.532 1.532 0 0 1-1.531-1.531v-7.875zm3.063 6.344h4.813v-4.813H32.5v4.813zm13.125-6.344a1.532 1.532 0 0 1 1.531-1.531h7.875a1.532 1.532 0 0 1 1.532 1.531v7.875a1.532 1.532 0 0 1-1.532 1.531h-7.875a1.532 1.532 0 0 1-1.53-1.531v-7.875zm3.063 6.344H53.5v-4.813h-4.812v4.813z" fill="#157BC0"/></svg>