<svg width="84" height="94" fill="none" xmlns="http://www.w3.org/2000/svg"><path d="M.408 47A41.674 41.674 0 0 1 31.026 6.87a1.531 1.531 0 0 1 .806 2.956 38.534 38.534 0 0 0 5.916 75.464l-2.387-2.152a1.531 1.531 0 0 1 2.05-2.275l5.614 5.06a1.532 1.532 0 0 1-.181 2.416l-6.913 4.564a1.531 1.531 0 1 1-1.688-2.555l3.07-2.027A41.65 41.65 0 0 1 .408 47.001zm46.28-41.32l3.069-2.027a1.53 1.53 0 1 0-1.686-2.555l-6.913 4.564a1.53 1.53 0 0 0-.18 2.415l5.611 5.06a1.532 1.532 0 1 0 2.051-2.274L46.252 8.71a38.533 38.533 0 0 1 6.374 75.338 1.531 1.531 0 0 0 .842 2.945 41.595 41.595 0 0 0-6.78-81.312v-.002zM15.863 29.737a1.533 1.533 0 0 0-2.1.535 32.827 32.827 0 1 0 8.05-9.147 1.533 1.533 0 0 0 1.884 2.415A29.454 29.454 0 0 1 42 17.25a29.738 29.738 0 1 1-25.6 14.585 1.532 1.532 0 0 0-.536-2.098zm3.707-2.284c.158-.18.317-.36.479-.536a1.53 1.53 0 0 0-2.26-2.067c-.174.195-.35.39-.524.588a1.53 1.53 0 1 0 2.306 2.013v.002zM62.527 60.07a1.532 1.532 0 0 0-2.14.337c-.18.248-.366.493-.557.732a1.532 1.532 0 1 0 2.397 1.905c.218-.275.43-.552.637-.835a1.532 1.532 0 0 0-.337-2.139zM42 72.817a25.611 25.611 0 0 0 15.4-5.09 1.532 1.532 0 0 0-1.829-2.458 22.703 22.703 0 1 1 7.534-9.746 1.53 1.53 0 0 0 .833 2.023 1.53 1.53 0 0 0 2.005-.874A25.82 25.82 0 1 0 42 72.817zm1.531-37.852v10.647a8.417 8.417 0 0 1 0 16.564v3.48a1.531 1.531 0 1 1-3.062 0V62.17a8.435 8.435 0 0 1-6.869-8.277 1.531 1.531 0 1 1 3.063 0 5.372 5.372 0 0 0 3.81 5.133V48.382a8.42 8.42 0 0 1 0-16.552v-3.485a1.531 1.531 0 1 1 3.063 0v3.48a8.434 8.434 0 0 1 6.912 8.282 1.531 1.531 0 1 1-3.062 0 5.37 5.37 0 0 0-3.855-5.142zm-3.062.01a5.361 5.361 0 0 0 0 10.263V34.974zM43.53 48.75v10.286a5.359 5.359 0 0 0 0-10.286z" fill="#157BC0"/></svg>