<svg xmlns="http://www.w3.org/2000/svg" height="512pt" viewBox="0 -30 512.00065 512" width="512pt"><path d="m376.207031 65.082031c-3.90625 3.910157-3.90625 10.242188 0 14.140625 3.902344 3.910156 10.242188 3.910156 14.140625 0 3.910156-3.898437 3.910156-10.230468 0-14.140625-3.898437-3.898437-10.238281-3.898437-14.140625 0zm0 0"/><path d="m114.582031 72.152344c-3.910156 3.910156-3.910156 10.242187 0 14.140625 3.902344 3.910156 10.242188 3.910156 14.140625 0 3.910156-3.898438 3.910156-10.230469 0-14.140625-3.898437-3.898438-10.238281-3.898438-14.140625 0zm0 0"/><path d="m503.207031 93.640625-84.847656-84.847656c-11.722656-11.722657-30.695313-11.726563-42.421875 0l-46.917969 46.917969c-23.683593-8.449219-50.316406-3.488282-69.414062 13.085937-24.554688-11.816406-53.183594-11.851563-77.757813-.09375l-45.785156-45.910156c-11.722656-11.722657-30.695312-11.726563-42.421875 0l-84.847656 84.847656c-11.734375 11.738281-11.710938 30.710937-.007813 42.414063 1.082032 1.085937 47.757813 47.886718 49.230469 49.363281-2.191406 15.449219 2.96875 31.277343 14.132813 42.441406l-14.136719 14.140625c-15.621094 15.617188-15.628907 40.941406.003906 56.574219 8.085937 8.078125 19.1875 12.320312 30.796875 11.597656-.730469 11.667969 3.507812 22.695313 11.625 30.8125 7.917969 7.925781 18.859375 12.375 30.800781 11.636719-.726562 11.761718 3.582031 22.746094 11.621094 30.796875 8.007813 8.007812 18.980469 12.359375 30.796875 11.632812-.722656 11.765625 3.589844 22.753907 11.636719 30.800781 15.59375 15.582032 40.96875 15.582032 56.570312-.007812l14.136719-14.140625 14.140625 14.148437c15.597656 15.582032 40.96875 15.578126 56.566406-.003906 8.429688-8.429687 12.292969-19.71875 11.613281-30.777344 12.757813.839844 24.851563-4.441406 33.039063-14.070312 6.746094-7.921875 9.636719-18.199219 8.828125-28.421875 11.953125.90625 23.179688-3.394531 31.367188-11.585937 8.105468-8.101563 12.359374-19.128907 11.632812-30.824219 11.609375.722656 22.71875-3.527344 30.800781-11.601563 15.582031-15.597656 15.582031-40.972656-.003906-56.570312l-7.578125-7.574219c13.976562-18.703125 17.757812-43.355469 9.882812-65.441406l46.914063-46.917969c11.726563-11.726562 11.730469-30.695312.003906-42.421875zm-431.050781 204.789063c-7.804688-7.808594-7.8125-20.476563 0-28.289063 15.179688-15.183594 27.238281-27.242187 42.425781-42.429687 7.796875-7.792969 20.480469-7.796876 28.277344 0 7.753906 7.753906 7.882813 20.410156.011719 28.277343-.003906.003907-.003906.003907-.007813.007813 0 0-.003906.003906-.003906.003906l-42.414063 42.425781c-7.800781 7.792969-20.492187 7.792969-28.289062.003907zm42.429688 42.417968c-7.820313-7.820312-7.824219-20.449218-.003907-28.273437 0-.003907 0-.003907.003907-.003907l42.414062-42.425781c7.800781-7.792969 20.492188-7.792969 28.292969-.003906 7.835937 7.835937 7.804687 20.484375 0 28.285156l-42.433594 42.425781c-7.808594 7.816407-20.457031 7.816407-28.273437-.003906zm42.421874 42.433594c-7.820312-7.835938-7.800781-20.472656-.007812-28.289062.003906 0 .003906 0 .003906-.003907l42.429688-42.417969s.003906-.003906.003906-.003906c7.800781-7.796875 20.488281-7.792968 28.277344-.003906 7.820312 7.832031 7.808594 20.464844.007812 28.28125 0 0 0 0-.003906.003906 0 0 0 0-.003906.003906l-42.425782 42.425782c-7.824218 7.824218-20.472656 7.808594-28.28125.003906zm70.714844 42.421875c-7.800781 7.792969-20.492187 7.792969-28.289062.003906-7.816406-7.816406-7.824219-20.460937-.003906-28.285156 0 0 .003906-.003906.003906-.003906l42.417968-42.421875c.003907 0 .007813-.003906.011719-.007813 7.808594-7.808593 20.464844-7.8125 28.277344 0 7.816406 7.816407 7.820313 20.464844 0 28.289063-14.316406 14.320312-26.660156 26.664062-42.417969 42.425781zm84.847656 0c-7.800781 7.792969-20.492187 7.792969-28.285156.003906l-14.140625-14.148437 14.136719-14.140625c5.046875-5.046875 8.570312-11.207031 10.359375-17.925781l17.925781 17.925781c7.800782 7.800781 7.800782 20.488281.003906 28.285156zm127.28125-127.277344c-7.804687 7.792969-20.496093 7.792969-28.289062.003907l-42.421875-42.429688c-3.902344-3.90625-10.234375-3.902344-14.140625-.003906-3.90625 3.90625-3.90625 10.238281-.003906 14.144531l42.425781 42.433594c7.796875 7.789062 7.835937 20.4375-.007813 28.277343-7.785156 7.789063-20.421874 7.851563-28.308593-.039062l-.960938-.953125-41.433593-41.429687c-3.90625-3.90625-10.238282-3.90625-14.144532 0-3.90625 3.902343-3.90625 10.234374 0 14.140624l41.375 41.371094c7.695313 8.175782 8.664063 20.492188 2.1875 28.097656-5.414062 6.367188-13.992187 8.71875-21.863281 5.992188-7.472656-2.59375-6.5625-4.628906-49.984375-47.183594-7.90625-7.90625-18.839844-12.363281-30.796875-11.625.722656-11.757812-3.585937-22.742187-11.625-30.792968-8.433594-8.4375-19.734375-12.300782-30.796875-11.609376.726562-11.671874-3.507812-22.699218-11.632812-30.824218-8.4375-8.429688-19.734376-12.289063-30.796876-11.597656.726563-11.671876-3.507812-22.707032-11.628906-30.828126-15.59375-15.59375-40.96875-15.59375-56.5625 0l-14.148437 14.148438c-7.550781-7.550781-10.523438-18.660156-7.757813-28.996094.917969-3.441406-.0625-7.117187-2.582031-9.644531l-24.96875-25.035156 49.460937-49.460938c3.902344-3.902343 3.902344-10.234375 0-14.140625-3.90625-3.90625-10.238281-3.90625-14.140624 0l-49.441407 49.441406-13.925781-13.960937c-3.910156-3.910156-3.910156-10.230469 0-14.140625l84.847656-84.847656c3.929688-3.929688 10.253906-3.882813 14.128906-.007813l51.007813 51.148438c3.222656 3.230469 8.234375 3.871093 12.167969 1.546875 18.0625-10.671875 39.734375-12.542969 59.070312-5.632813l-51.800781 51.804688c-15.582031 15.59375-15.582031 40.96875.003906 56.570312 15.597657 15.582031 40.96875 15.582031 56.570313-.003906l21.210937-21.210937c19.535157-19.542969 51.160157-19.550782 70.703125.003906l98.996094 98.984375c7.792969 7.800781 7.792969 20.496093.007812 28.289062zm49.214844-176.503906-20.941406 20.9375-49.496094-49.488281c-3.90625-3.90625-10.238281-3.902344-14.144531 0-3.902344 3.90625-3.902344 10.238281 0 14.144531l49.5 49.488281-16.558594 16.554688c-2.996093 3-3.777343 7.5625-1.949219 11.386718 7.652344 16.007813 6.113282 34.6875-3.417968 49.125l-77.066406-77.058593c-27.351563-27.363281-71.636719-27.371094-98.992188 0l-21.207031 21.207031c-7.800781 7.792969-20.496094 7.792969-28.289063.003906-7.792968-7.800781-7.792968-20.492187 0-28.289062 13.609375-13.609375 41.5625-41.5625 63.636719-63.640625 14.964844-14.964844 37.835937-18.886719 56.914063-9.769531 3.824218 1.828124 8.386718 1.046874 11.386718-1.949219l51.636719-51.640625c3.90625-3.90625 10.230469-3.910156 14.140625 0l84.847656 84.851562c3.898438 3.898438 3.914063 10.21875 0 14.136719zm0 0"/></svg>