<svg width="112" height="112" viewBox="0 0 112 112" fill="none" xmlns="http://www.w3.org/2000/svg">
<path d="M31.711 41.125C31.3049 41.125 30.9154 40.9637 30.6282 40.6765C30.3411 40.3893 30.1797 39.9999 30.1797 39.5938C30.1797 39.1876 30.3411 38.7982 30.6282 38.511C30.9154 38.2238 31.3049 38.0625 31.711 38.0625H32.3751C32.7812 38.0625 33.1707 38.2238 33.4579 38.511C33.745 38.7982 33.9064 39.1876 33.9064 39.5938C33.9064 39.9999 33.745 40.3893 33.4579 40.6765C33.1707 40.9637 32.7812 41.125 32.3751 41.125H31.711ZM98.9477 18.9621C98.9479 18.761 98.9083 18.5618 98.8314 18.376C98.7545 18.1902 98.6417 18.0213 98.4995 17.8791C98.3573 17.7369 98.1884 17.6241 98.0026 17.5472C97.8168 17.4703 97.6176 17.4308 97.4165 17.4309H92.1726C91.7665 17.4309 91.377 17.5922 91.0899 17.8794C90.8027 18.1665 90.6414 18.556 90.6414 18.9621C90.6414 19.3682 90.8027 19.7577 91.0899 20.0449C91.377 20.332 91.7665 20.4934 92.1726 20.4934H95.8852V38.0625H38.2814C37.8753 38.0625 37.4858 38.2238 37.1986 38.511C36.9114 38.7982 36.7501 39.1876 36.7501 39.5938C36.7501 39.9999 36.9114 40.3893 37.1986 40.6765C37.4858 40.9637 37.8753 41.125 38.2814 41.125H95.8852V62.5625C95.8852 62.9686 96.0466 63.3581 96.3337 63.6453C96.6209 63.9324 97.0104 64.0938 97.4165 64.0938C97.8226 64.0938 98.2121 63.9324 98.4992 63.6453C98.7864 63.3581 98.9477 62.9686 98.9477 62.5625V18.9621ZM39.9526 17.4274H76.6414V15.3125C76.6414 13.8621 77.2175 12.4711 78.2431 11.4455C79.2687 10.4199 80.6597 9.84375 82.1101 9.84375C83.5605 9.84375 84.9515 10.4199 85.9771 11.4455C87.0027 12.4711 87.5789 13.8621 87.5789 15.3125V22.6039C87.5789 24.0543 87.0027 25.4453 85.9771 26.4709C84.9515 27.4965 83.5605 28.0726 82.1101 28.0726C80.6597 28.0726 79.2687 27.4965 78.2431 26.4709C77.2175 25.4453 76.6414 24.0543 76.6414 22.6039V20.4899H39.9526C39.5465 20.4899 39.157 20.3285 38.8699 20.0414C38.5827 19.7542 38.4214 19.3647 38.4214 18.9586C38.4214 18.5525 38.5827 18.163 38.8699 17.8759C39.157 17.5887 39.5465 17.4274 39.9526 17.4274ZM79.7039 22.6039C79.7039 23.2421 79.9574 23.8541 80.4086 24.3054C80.8599 24.7566 81.4719 25.0101 82.1101 25.0101C82.7483 25.0101 83.3603 24.7566 83.8116 24.3054C84.2629 23.8541 84.5164 23.2421 84.5164 22.6039V15.3125C84.5164 14.6743 84.2629 14.0623 83.8116 13.611C83.3603 13.1598 82.7483 12.9062 82.1101 12.9062C81.4719 12.9062 80.8599 13.1598 80.4086 13.611C79.9574 14.0623 79.7039 14.6743 79.7039 15.3125V22.6039ZM98.4997 88.9473L85.7387 101.707C85.4517 101.995 85.0624 102.156 84.6564 102.156H14.5837C14.1776 102.156 13.7881 101.995 13.501 101.708C13.2138 101.421 13.0525 101.031 13.0525 100.625V18.9586C13.0524 18.7575 13.0919 18.5583 13.1688 18.3725C13.2457 18.1867 13.3585 18.0178 13.5007 17.8756C13.6429 17.7334 13.8118 17.6206 13.9976 17.5437C14.1835 17.4668 14.3826 17.4273 14.5837 17.4274H24.4214V15.3125C24.4214 13.8621 24.9975 12.4711 26.0231 11.4455C27.0487 10.4199 28.4397 9.84375 29.8901 9.84375C31.3405 9.84375 32.7315 10.4199 33.7571 11.4455C34.7827 12.4711 35.3589 13.8621 35.3589 15.3125V22.6039C35.3589 24.0543 34.7827 25.4453 33.7571 26.4709C32.7315 27.4965 31.3405 28.0726 29.8901 28.0726C28.4397 28.0726 27.0487 27.4965 26.0231 26.4709C24.9975 25.4453 24.4214 24.0543 24.4214 22.6039V20.4899H16.115V38.0625H25.9526C26.3587 38.0625 26.7482 38.2238 27.0354 38.511C27.3225 38.7982 27.4839 39.1876 27.4839 39.5938C27.4839 39.9999 27.3225 40.3893 27.0354 40.6765C26.7482 40.9637 26.3587 41.125 25.9526 41.125H16.115V99.0938H84.022L93.7205 89.3961H86.1876V93.807C86.1876 94.2131 86.0263 94.6026 85.7391 94.8898C85.452 95.1769 85.0625 95.3382 84.6564 95.3382C84.2503 95.3382 83.8608 95.1769 83.5736 94.8898C83.2864 94.6026 83.1251 94.2131 83.1251 93.807V87.8649C83.1251 87.4588 83.2864 87.0693 83.5736 86.7821C83.8608 86.495 84.2503 86.3336 84.6564 86.3336H95.8852V73.9375C95.8852 73.5314 96.0466 73.1419 96.3337 72.8547C96.6209 72.5676 97.0104 72.4062 97.4165 72.4062C97.8226 72.4062 98.2121 72.5676 98.4992 72.8547C98.7864 73.1419 98.9477 73.5314 98.9477 73.9375V87.8649C98.9478 88.0659 98.9083 88.2649 98.8314 88.4506C98.7545 88.6363 98.6418 88.8051 98.4997 88.9473ZM27.4839 22.6039C27.4839 23.2421 27.7374 23.8541 28.1886 24.3054C28.6399 24.7566 29.2519 25.0101 29.8901 25.0101C30.5283 25.0101 31.1403 24.7566 31.5916 24.3054C32.0428 23.8541 32.2964 23.2421 32.2964 22.6039V15.3125C32.2964 14.6743 32.0428 14.0623 31.5916 13.611C31.1403 13.1598 30.5283 12.9062 29.8901 12.9062C29.2519 12.9062 28.6399 13.1598 28.1886 13.611C27.7374 14.0623 27.4839 14.6743 27.4839 15.3125V22.6039ZM98.9477 67.7031C98.9477 67.297 98.7864 66.9075 98.4992 66.6204C98.2121 66.3332 97.8226 66.1719 97.4165 66.1719C97.0104 66.1719 96.6209 66.3332 96.3337 66.6204C96.0466 66.9075 95.8852 67.297 95.8852 67.7031V68.4688C95.8852 68.8749 96.0466 69.2643 96.3337 69.5515C96.6209 69.8387 97.0104 70 97.4165 70C97.8226 70 98.2121 69.8387 98.4992 69.5515C98.7864 69.2643 98.9477 68.8749 98.9477 68.4688V67.7031ZM37.1797 58.625C37.1797 59.0311 37.0184 59.4206 36.7312 59.7078C36.4441 59.9949 36.0546 60.1562 35.6485 60.1562H27.7735C27.3674 60.156 26.9781 59.9946 26.691 59.7075C26.4039 59.4204 26.2425 59.031 26.2422 58.625V50.75C26.2425 50.344 26.4039 49.9546 26.691 49.6675C26.9781 49.3804 27.3674 49.219 27.7735 49.2188H35.6485C36.0546 49.2188 36.4441 49.3801 36.7312 49.6672C37.0184 49.9544 37.1797 50.3439 37.1797 50.75V58.625ZM34.1172 52.2812H29.3047V57.0938H34.1172V52.2812ZM42.4376 58.625V50.75C42.4378 50.344 42.5992 49.9546 42.8864 49.6675C43.1735 49.3804 43.5628 49.219 43.9689 49.2188H51.8439C52.2499 49.219 52.6393 49.3804 52.9264 49.6675C53.2135 49.9546 53.3749 50.344 53.3751 50.75V58.625C53.3749 59.031 53.2135 59.4204 52.9264 59.7075C52.6393 59.9946 52.2499 60.156 51.8439 60.1562H43.9689C43.5628 60.156 43.1735 59.9946 42.8864 59.7075C42.5992 59.4204 42.4378 59.031 42.4376 58.625ZM45.5001 57.0938H50.3126V52.2812H45.5001V57.0938ZM60.1616 49.2188C59.9601 49.2182 59.7605 49.2573 59.5742 49.334C59.3878 49.4107 59.2184 49.5234 59.0757 49.6656C58.933 49.8079 58.8197 49.9769 58.7424 50.1629C58.6651 50.349 58.6252 50.5485 58.6251 50.75V58.625C58.6253 59.031 58.7868 59.4204 59.0739 59.7075C59.361 59.9946 59.7503 60.156 60.1564 60.1562H68.0314C68.4374 60.156 68.8268 59.9946 69.1139 59.7075C69.401 59.4204 69.5624 59.031 69.5626 58.625V50.75C69.5626 50.3439 69.4013 49.9544 69.1141 49.6672C68.827 49.3801 68.4375 49.2188 68.0314 49.2188C67.6253 49.2188 67.2358 49.3801 66.9486 49.6672C66.6614 49.9544 66.5001 50.3439 66.5001 50.75V57.0938H61.6876V50.75C61.6874 50.3444 61.5263 49.9555 61.2398 49.6684C60.9532 49.3814 60.5646 49.2197 60.159 49.2188H60.1616ZM74.8205 58.625V50.75C74.8205 50.3439 74.9818 49.9544 75.269 49.6672C75.5561 49.3801 75.9456 49.2188 76.3517 49.2188H84.2267C84.6328 49.219 85.0221 49.3804 85.3092 49.6675C85.5964 49.9546 85.7578 50.344 85.758 50.75V58.625C85.7578 59.031 85.5964 59.4204 85.3092 59.7075C85.0221 59.9946 84.6328 60.156 84.2267 60.1562H76.3517C75.9456 60.1562 75.5561 59.9949 75.269 59.7078C74.9818 59.4206 74.8205 59.0311 74.8205 58.625ZM77.883 57.0938H82.6955V52.2812H77.883V57.0938ZM37.1797 66.0625C37.1797 65.6564 37.0184 65.2669 36.7312 64.9797C36.4441 64.6926 36.0546 64.5312 35.6485 64.5312H27.7735C27.3674 64.5312 26.9779 64.6926 26.6907 64.9797C26.4036 65.2669 26.2422 65.6564 26.2422 66.0625C26.2422 66.4686 26.4036 66.8581 26.6907 67.1453C26.9779 67.4324 27.3674 67.5938 27.7735 67.5938H34.1172V72.4062H27.7735C27.3674 72.4062 26.9779 72.5676 26.6907 72.8547C26.4036 73.1419 26.2422 73.5314 26.2422 73.9375C26.2422 74.3436 26.4036 74.7331 26.6907 75.0203C26.9779 75.3074 27.3674 75.4688 27.7735 75.4688H35.6485C36.0546 75.4688 36.4441 75.3074 36.7312 75.0203C37.0184 74.7331 37.1797 74.3436 37.1797 73.9375V66.0625ZM42.435 66.0625C42.4352 65.6565 42.5966 65.2671 42.8837 64.98C43.1709 64.6929 43.5602 64.5315 43.9662 64.5312H51.8412C52.0425 64.531 52.2419 64.5704 52.4279 64.6473C52.6139 64.7241 52.783 64.8369 52.9254 64.9791C53.0679 65.1213 53.1809 65.2901 53.2581 65.476C53.3352 65.6619 53.375 65.8612 53.3751 66.0625V73.9375C53.3749 74.3435 53.2135 74.7329 52.9264 75.02C52.6393 75.3071 52.2499 75.4685 51.8439 75.4688H43.9689C43.5628 75.4685 43.1735 75.3071 42.8864 75.02C42.5992 74.7329 42.4378 74.3435 42.4376 73.9375L42.435 66.0625ZM45.5001 72.4062H50.3126V67.5938H45.5001V72.4062ZM58.6251 66.0625C58.6253 65.6565 58.7868 65.2671 59.0739 64.98C59.361 64.6929 59.7503 64.5315 60.1564 64.5312H68.0314C68.4374 64.5315 68.8268 64.6929 69.1139 64.98C69.401 65.2671 69.5624 65.6565 69.5626 66.0625V73.9375C69.5624 74.3435 69.401 74.7329 69.1139 75.02C68.8268 75.3071 68.4374 75.4685 68.0314 75.4688H60.1564C59.7503 75.4685 59.361 75.3071 59.0739 75.02C58.7868 74.7329 58.6253 74.3435 58.6251 73.9375V66.0625ZM61.6876 72.4062H66.5001V67.5938H61.6876V72.4062ZM74.8205 66.0625C74.8205 65.6564 74.9818 65.2669 75.269 64.9797C75.5561 64.6926 75.9456 64.5312 76.3517 64.5312H84.2267C84.6328 64.5315 85.0221 64.6929 85.3092 64.98C85.5964 65.2671 85.7578 65.6565 85.758 66.0625V73.9375C85.7578 74.3435 85.5964 74.7329 85.3092 75.02C85.0221 75.3071 84.6328 75.4685 84.2267 75.4688H76.3517C75.9456 75.4688 75.5561 75.3074 75.269 75.0203C74.9818 74.7331 74.8205 74.3436 74.8205 73.9375V66.0625ZM77.883 72.4062H82.6955V67.5938H77.883V72.4062ZM37.1797 81.375V89.25C37.1797 89.6561 37.0184 90.0456 36.7312 90.3328C36.4441 90.6199 36.0546 90.7812 35.6485 90.7812H27.7735C27.3674 90.781 26.9781 90.6196 26.691 90.3325C26.4039 90.0454 26.2425 89.656 26.2422 89.25V81.375C26.2425 80.969 26.4039 80.5796 26.691 80.2925C26.9781 80.0054 27.3674 79.844 27.7735 79.8438H35.6485C36.0546 79.8438 36.4441 80.0051 36.7312 80.2922C37.0184 80.5794 37.1797 80.9689 37.1797 81.375ZM34.1172 82.9062H29.3047V87.7188H34.1172V82.9062ZM42.4376 81.375C42.4378 80.969 42.5992 80.5796 42.8864 80.2925C43.1735 80.0054 43.5628 79.844 43.9689 79.8438H51.8439C52.2499 79.844 52.6393 80.0054 52.9264 80.2925C53.2135 80.5796 53.3749 80.969 53.3751 81.375V89.25C53.3749 89.656 53.2135 90.0454 52.9264 90.3325C52.6393 90.6196 52.2499 90.781 51.8439 90.7812H43.9689C43.5628 90.781 43.1735 90.6196 42.8864 90.3325C42.5992 90.0454 42.4378 89.656 42.4376 89.25V81.375ZM45.5001 87.7188H50.3126V82.9062H45.5001V87.7188ZM58.6251 81.375C58.6253 80.969 58.7868 80.5796 59.0739 80.2925C59.361 80.0054 59.7503 79.844 60.1564 79.8438H68.0314C68.4374 79.844 68.8268 80.0054 69.1139 80.2925C69.401 80.5796 69.5624 80.969 69.5626 81.375V89.25C69.5624 89.656 69.401 90.0454 69.1139 90.3325C68.8268 90.6196 68.4374 90.781 68.0314 90.7812H60.1564C59.7503 90.781 59.361 90.6196 59.0739 90.3325C58.7868 90.0454 58.6253 89.656 58.6251 89.25V81.375ZM61.6876 87.7188H66.5001V82.9062H61.6876V87.7188Z" fill="#157BC0"/>
</svg>
