<svg width="112" height="112" viewBox="0 0 112 112" fill="none" xmlns="http://www.w3.org/2000/svg">
<path d="M56 102.049C50.2493 102.045 44.5847 100.651 39.4888 97.9865C34.3929 95.3216 30.0166 91.4645 26.7328 86.7436C23.4489 82.0228 21.3549 76.5782 20.6289 70.8735C19.903 65.1689 20.5667 59.3733 22.5636 53.9805C22.6336 53.792 22.7401 53.6191 22.8769 53.4717C23.0138 53.3244 23.1783 53.2054 23.3611 53.1217C23.5439 53.0379 23.7415 52.9909 23.9424 52.9835C24.1434 52.9761 24.3438 53.0083 24.5323 53.0783C24.7208 53.1484 24.8937 53.2548 25.041 53.3917C25.1884 53.5285 25.3074 53.6931 25.3911 53.8759C25.4749 54.0587 25.5218 54.2562 25.5293 54.4572C25.5367 54.6581 25.5045 54.8586 25.4345 55.0471C22.6091 62.6374 22.7073 71.0073 25.7101 78.5292C28.7129 86.0512 34.4056 92.1877 41.6814 95.7457C48.9572 99.3036 57.2961 100.029 65.0768 97.7801C72.8576 95.5314 79.524 90.4696 83.7801 83.5789C88.0362 76.6882 89.5777 68.4609 88.1049 60.4968C86.6321 52.5327 82.2503 45.4008 75.8114 40.4879C69.3725 35.5749 61.3367 33.232 53.2664 33.9146C45.196 34.5973 37.6679 38.2567 32.1457 44.1813C31.8688 44.4785 31.4853 44.6535 31.0794 44.6679C30.6735 44.6822 30.2785 44.5347 29.9814 44.2579C29.6842 43.981 29.5092 43.5975 29.4949 43.1916C29.4805 42.7857 29.628 42.3907 29.9048 42.0936C34.3425 37.3461 39.9899 33.8976 46.2402 32.1186L46.9183 26.2228H43.4743C43.1754 26.2229 42.8831 26.1355 42.6333 25.9713C42.3835 25.8072 42.1872 25.5736 42.0686 25.2993C41.95 25.0249 41.9142 24.7219 41.9658 24.4274C42.0173 24.133 42.1539 23.8602 42.3587 23.6425L54.8843 10.325C55.1804 10.0295 55.5816 9.86353 56 9.86353C56.4183 9.86353 56.8195 10.0295 57.1156 10.325L69.6412 23.6425C69.846 23.8602 69.9826 24.133 70.0341 24.4274C70.0857 24.7219 70.05 25.0249 69.9313 25.2993C69.8127 25.5736 69.6164 25.8072 69.3666 25.9713C69.1168 26.1355 68.8245 26.2229 68.5256 26.2228H63.3631C62.957 26.2228 62.5675 26.0615 62.2803 25.7743C61.9932 25.4872 61.8318 25.0977 61.8318 24.6916C61.8318 24.2855 61.9932 23.896 62.2803 23.6088C62.5675 23.3217 62.957 23.1603 63.3631 23.1603H64.9818L56 13.6097L47.0163 23.1603H48.6351C48.851 23.1603 49.0644 23.2059 49.2615 23.2941C49.4585 23.3824 49.6346 23.5113 49.7783 23.6724C49.922 23.8335 50.03 24.0232 50.0952 24.229C50.1604 24.4348 50.1814 24.6521 50.1567 24.8666L49.4095 31.367C54.2846 30.4494 59.2976 30.5594 64.1277 31.69C68.9579 32.8206 73.4989 34.9468 77.4604 37.9327C81.4218 40.9186 84.7165 44.6985 87.1336 49.0305C89.5507 53.3625 91.0371 58.1513 91.4977 63.0906C91.9582 68.0299 91.3828 73.011 89.8082 77.7152C88.2337 82.4194 85.6946 86.7432 82.3535 90.41C79.0124 94.0769 74.9427 97.006 70.4048 99.0101C65.8669 101.014 60.9607 102.049 56 102.049ZM28.2948 46.41C28.1269 46.2993 27.9388 46.2228 27.7412 46.1849C27.5437 46.147 27.3406 46.1484 27.1436 46.189C26.9466 46.2297 26.7596 46.3087 26.5932 46.4217C26.4268 46.5347 26.2843 46.6794 26.1738 46.8475C26.019 47.082 25.8676 47.32 25.7188 47.5588C25.602 47.7294 25.521 47.9219 25.4805 48.1246C25.4401 48.3274 25.4412 48.5363 25.4837 48.7386C25.5261 48.9409 25.6091 49.1326 25.7277 49.302C25.8462 49.4714 25.9978 49.615 26.1734 49.7242C26.3489 49.8334 26.5448 49.9059 26.7491 49.9374C26.9535 49.9689 27.1621 49.9586 27.3623 49.9073C27.5626 49.856 27.7504 49.7646 27.9145 49.6388C28.0785 49.5129 28.2153 49.3551 28.3167 49.175C28.4523 48.958 28.5906 48.7375 28.7315 48.5275C28.9539 48.1886 29.0329 47.7754 28.951 47.3784C28.8692 46.9814 28.6332 46.6331 28.2948 46.41ZM75.2823 82.243C75.1502 82.404 75.0155 82.5623 74.8798 82.7198C74.6189 83.0273 74.4898 83.4253 74.5206 83.8274C74.5513 84.2295 74.7395 84.6032 75.0441 84.8674C75.3488 85.1316 75.7454 85.265 76.1477 85.2385C76.5501 85.2121 76.9259 85.028 77.1933 84.7262C77.3465 84.5512 77.4978 84.3701 77.6475 84.189C77.7833 84.0349 77.8868 83.855 77.9517 83.6602C78.0166 83.4653 78.0416 83.2593 78.0253 83.0545C78.009 82.8498 77.9516 82.6504 77.8566 82.4682C77.7617 82.2861 77.631 82.1249 77.4725 81.9943C77.3139 81.8637 77.1307 81.7664 76.9337 81.708C76.7368 81.6497 76.5301 81.6316 76.326 81.6548C76.1219 81.678 75.9245 81.742 75.7457 81.8431C75.5668 81.9441 75.4102 82.0801 75.285 82.243H75.2823ZM78.463 80.5253C78.8184 80.7217 79.2372 80.7689 79.6274 80.6565C80.0177 80.5441 80.3472 80.2813 80.5437 79.926C83.8783 73.8832 84.8669 66.8228 83.3201 60.0966C81.7733 53.3703 77.7999 47.451 72.1606 43.4719C66.5214 39.4928 59.6126 37.7335 52.757 38.531C45.9015 39.3284 39.5809 42.6266 35.0056 47.7939C30.4303 52.9612 27.9217 59.6345 27.9602 66.5362C27.9986 73.4379 30.5814 80.0829 35.2141 85.1988C39.8467 90.3148 46.2036 93.5423 53.0676 94.2633C59.9316 94.9843 66.8204 93.1482 72.415 89.1065C72.7353 88.8653 72.9483 88.5081 73.0081 88.1116C73.068 87.7152 72.9699 87.311 72.735 86.9861C72.5001 86.6611 72.1471 86.4412 71.7519 86.3737C71.3566 86.3062 70.9507 86.3964 70.6212 86.625C65.6459 90.2154 59.5211 91.8449 53.4194 91.2016C47.3176 90.5582 41.6674 87.6872 37.5503 83.1381C33.4331 78.5889 31.1383 72.6812 31.1049 66.5457C31.0716 60.4102 33.3021 54.4779 37.3695 49.8843C41.437 45.2907 47.0556 42.3584 53.15 41.6488C59.2444 40.9391 65.3865 42.5019 70.4006 46.0381C75.4147 49.5743 78.9486 54.8353 80.3259 60.8144C81.7031 66.7934 80.8271 73.0703 77.8653 78.4437C77.768 78.6198 77.7063 78.8133 77.6837 79.0133C77.6612 79.2132 77.6783 79.4156 77.7341 79.6089C77.7898 79.8022 77.8831 79.9827 78.0086 80.1399C78.1342 80.2972 78.2894 80.4281 78.4656 80.5253H78.463ZM57.5312 53.0827V64.9976C59.6394 65.352 61.5539 66.4421 62.9345 68.0743C64.3152 69.7065 65.0728 71.7751 65.0728 73.913C65.0728 76.0508 64.3152 78.1194 62.9345 79.7516C61.5539 81.3838 59.6394 82.4739 57.5312 82.8283V86.7431C57.5312 87.1492 57.3699 87.5387 57.0827 87.8258C56.7955 88.113 56.4061 88.2743 56 88.2743C55.5938 88.2743 55.2044 88.113 54.9172 87.8258C54.63 87.5387 54.4687 87.1492 54.4687 86.7431V82.8213C52.3712 82.4544 50.4699 81.3605 49.0986 79.7314C47.7273 78.1023 46.9737 76.0423 46.97 73.913C46.97 73.5068 47.1313 73.1174 47.4184 72.8302C47.7056 72.543 48.0951 72.3817 48.5012 72.3817C48.9073 72.3817 49.2968 72.543 49.584 72.8302C49.8711 73.1174 50.0325 73.5068 50.0325 73.913C50.0356 75.229 50.4716 76.5075 51.2734 77.5511C52.0751 78.5948 53.1979 79.3457 54.4687 79.688V67.7801C52.3692 67.4171 50.4653 66.3243 49.093 64.6944C47.7207 63.0646 46.9682 61.0024 46.9682 58.8717C46.9682 56.741 47.7207 54.6788 49.093 53.049C50.4653 51.4191 52.3692 50.3263 54.4687 49.9633V46.0407C54.4687 45.6346 54.63 45.2451 54.9172 44.9579C55.2044 44.6708 55.5938 44.5095 56 44.5095C56.4061 44.5095 56.7955 44.6708 57.0827 44.9579C57.3699 45.2451 57.5312 45.6346 57.5312 46.0407V49.9563C59.638 50.314 61.5505 51.405 62.9308 53.0365C64.311 54.6679 65.07 56.7347 65.0737 58.8717C65.0737 59.2778 64.9124 59.6673 64.6252 59.9545C64.338 60.2416 63.9486 60.403 63.5425 60.403C63.1363 60.403 62.7469 60.2416 62.4597 59.9545C62.1725 59.6673 62.0112 59.2778 62.0112 58.8717C62.0089 57.5474 61.5681 56.2612 60.7576 55.2139C59.9471 54.1666 58.8126 53.4172 57.5312 53.0827ZM54.4687 53.0941C53.1964 53.4343 52.0719 54.185 51.2698 55.2297C50.4678 56.2744 50.033 57.5546 50.033 58.8717C50.033 60.1888 50.4678 61.469 51.2698 62.5137C52.0719 63.5584 53.1964 64.3091 54.4687 64.6493V53.0941ZM57.5312 68.124V79.702C58.8135 79.3693 59.949 78.6204 60.7596 77.5726C61.5702 76.5249 62.01 75.2377 62.01 73.913C62.01 72.5883 61.5702 71.301 60.7596 70.2533C59.949 69.2056 58.8135 68.4566 57.5312 68.124Z" fill="#157BC0"/>
</svg>
