<svg width="112" height="112" viewBox="0 0 112 112" fill="none" xmlns="http://www.w3.org/2000/svg">
<path d="M11.375 96.0907H38.85V74.1448H33.145V86.6976C33.145 87.1037 32.9837 87.4932 32.6965 87.7803C32.4093 88.0675 32.0199 88.2288 31.6138 88.2288C31.2076 88.2288 30.8182 88.0675 30.531 87.7803C30.2438 87.4932 30.0825 87.1037 30.0825 86.6976V74.1448H11.375C10.9689 74.1448 10.5794 73.9835 10.2922 73.6963C10.0051 73.4092 9.84375 73.0197 9.84375 72.6136C9.84375 72.2075 10.0051 71.818 10.2922 71.5308C10.5794 71.2436 10.9689 71.0823 11.375 71.0823H40.3778C40.5979 71.083 40.8152 71.1315 41.0148 71.2244C41.2144 71.3173 41.3914 71.4524 41.5336 71.6204L47.4618 64.5942C47.6056 64.4239 47.7849 64.287 47.9871 64.193C48.1893 64.099 48.4095 64.0502 48.6325 64.0499H68.1984C70.2034 64.052 72.1443 64.7565 73.6837 66.0411C75.2231 67.3258 76.2637 69.1092 76.6246 71.0814H79.723L90.587 65.0124C92.7859 63.7847 95.262 63.1393 97.7804 63.1373H99.2679C99.8411 63.1374 100.401 63.3084 100.877 63.6284C101.353 63.9485 101.722 64.403 101.938 64.9341C102.154 65.4651 102.207 66.0484 102.09 66.6096C101.973 67.1708 101.691 67.6843 101.28 68.0846L86.275 82.7181C82.7355 86.1625 78.1424 88.3193 73.2314 88.8431C73.2008 88.8431 73.171 88.8492 73.1439 88.8501L47.0225 90.0488H46.9516C46.5455 90.058 46.1524 89.9054 45.8587 89.6248C45.5651 89.3441 45.395 88.9582 45.3858 88.5521C45.3766 88.146 45.5292 87.7529 45.8099 87.4593C46.0905 87.1656 46.4764 86.9955 46.8825 86.9863L72.9575 85.7893C77.1675 85.3316 81.1035 83.4789 84.1391 80.5262L98.8391 66.1963H97.7891C95.7937 66.198 93.8319 66.7101 92.0903 67.6838L80.8692 73.9506C80.6409 74.0781 80.3836 74.145 80.122 74.1448H75.4145L58.7842 78.2249C58.6643 78.2547 58.5412 78.2697 58.4176 78.2696C58.0439 78.2686 57.6833 78.131 57.404 77.8827C57.1247 77.6343 56.9458 77.2924 56.9012 76.9212C56.8565 76.5502 56.9491 76.1755 57.1616 75.868C57.374 75.5605 57.6916 75.3413 58.0545 75.2517L73.5709 71.4419C73.302 70.2163 72.6231 69.1191 71.6462 68.3316C70.6694 67.5441 69.4531 67.1134 68.1984 67.1107H49.3439L41.9125 75.9254V97.6254C41.9125 97.8265 41.8729 98.0257 41.7959 98.2114C41.719 98.3972 41.6062 98.566 41.464 98.7082C41.3218 98.8504 41.153 98.9632 40.9672 99.0401C40.7815 99.1171 40.5823 99.1567 40.3813 99.1567H11.375C10.9689 99.1567 10.5794 98.9954 10.2922 98.7082C10.0051 98.421 9.84375 98.0316 9.84375 97.6254C9.84375 97.2193 10.0051 96.8298 10.2922 96.5427C10.5794 96.2555 10.9689 96.0942 11.375 96.0942V96.0907ZM33.145 91.9476V91.1461C33.145 90.74 32.9837 90.3505 32.6965 90.0633C32.4093 89.7761 32.0199 89.6148 31.6138 89.6148C31.2076 89.6148 30.8182 89.7761 30.531 90.0633C30.2438 90.3505 30.0825 90.74 30.0825 91.1461V91.9476C30.0825 92.3537 30.2438 92.7432 30.531 93.0303C30.8182 93.3175 31.2076 93.4788 31.6138 93.4788C32.0199 93.4788 32.4093 93.3175 32.6965 93.0303C32.9837 92.7432 33.145 92.3537 33.145 91.9476ZM58.8787 17.0414C58.713 17.1573 58.5719 17.3048 58.4635 17.4755C58.3552 17.6462 58.2816 17.8367 58.2473 18.0359C58.2129 18.2351 58.2183 18.4392 58.2632 18.6364C58.3081 18.8335 58.3916 19.0198 58.5088 19.1845C58.6261 19.3492 58.7748 19.4891 58.9464 19.596C59.118 19.7029 59.3091 19.7748 59.5087 19.8075C59.7082 19.8402 59.9122 19.833 60.109 19.7864C60.3057 19.7398 60.4913 19.6547 60.655 19.5361C64.5124 16.8001 69.229 15.5511 73.9349 16.0194C78.6408 16.4876 83.0188 18.6416 86.2614 22.084C89.504 25.5265 91.3926 30.0253 91.5789 34.7507C91.7653 39.4762 90.2368 44.1098 87.2753 47.7969C84.3138 51.484 80.1191 53.976 75.4647 54.8133C70.8102 55.6507 66.0099 54.777 61.9491 52.3533C57.8882 49.9295 54.8406 46.1193 53.3683 41.6251C51.8959 37.131 52.0981 32.2561 53.9376 27.8993C54.0959 27.5252 54.0991 27.1036 53.9465 26.7272C53.7939 26.3507 53.498 26.0503 53.1239 25.8921C52.7498 25.7338 52.3281 25.7306 51.9517 25.8832C51.5753 26.0358 51.2749 26.3317 51.1166 26.7058C48.9818 31.7525 48.7442 37.4009 50.4476 42.609C52.1509 47.8172 55.6803 52.2335 60.3847 55.0434C65.089 57.8533 70.6508 58.867 76.044 57.8976C81.4371 56.9282 86.2977 54.041 89.7291 49.7688C93.1604 45.4966 94.9309 40.1275 94.7139 34.6522C94.4969 29.1769 92.3071 23.9648 88.5485 19.9775C84.7899 15.9902 79.716 13.4967 74.2631 12.9571C68.8101 12.4175 63.346 13.8681 58.8787 17.0414ZM54.3961 23.7343C54.7167 23.9839 55.1233 24.0958 55.5265 24.0456C55.9297 23.9954 56.2964 23.7871 56.546 23.4666C56.6632 23.3152 56.7831 23.1673 56.9056 23.0203C57.1654 22.7081 57.2905 22.3054 57.2535 21.9009C57.2164 21.4964 57.0201 21.1232 56.7079 20.8634C56.5533 20.7348 56.3748 20.6379 56.1828 20.5782C55.9907 20.5185 55.7888 20.4973 55.5885 20.5156C55.184 20.5527 54.8108 20.749 54.551 21.0612C54.4075 21.2362 54.2675 21.4112 54.1292 21.5862C53.8799 21.9065 53.768 22.3127 53.8181 22.7155C53.8681 23.1183 54.076 23.4848 54.3961 23.7343ZM70.4961 44.8314V36.8969C68.9214 36.5465 67.5132 35.6697 66.5039 34.4112C65.4947 33.1526 64.9446 31.5876 64.9446 29.9744C64.9446 28.3611 65.4947 26.7961 66.5039 25.5376C67.5132 24.279 68.9214 23.4022 70.4961 23.0518V20.4749C70.4961 20.0688 70.6574 19.6794 70.9446 19.3922C71.2318 19.105 71.6213 18.9437 72.0274 18.9437C72.4335 18.9437 72.823 19.105 73.1101 19.3922C73.3973 19.6794 73.5586 20.0688 73.5586 20.4749V23.0413C75.1392 23.3884 76.554 24.2645 77.5691 25.5248C78.5842 26.785 79.1387 28.354 79.1411 29.9722C79.1411 30.3783 78.9798 30.7678 78.6926 31.055C78.4055 31.3421 78.016 31.5034 77.6099 31.5034C77.2038 31.5034 76.8143 31.3421 76.5271 31.055C76.24 30.7678 76.0786 30.3783 76.0786 29.9722C76.0773 29.1698 75.8368 28.3859 75.388 27.7208C74.9391 27.0556 74.3022 26.5393 73.5586 26.2377V34.1748C75.1406 34.5192 76.5572 35.3945 77.573 36.6552C78.5888 37.9159 79.1427 39.4862 79.1427 41.1053C79.1427 42.7243 78.5888 44.2946 77.573 45.5553C76.5572 46.8161 75.1406 47.6913 73.5586 48.0357V50.6021C73.5586 51.0082 73.3973 51.3977 73.1101 51.6848C72.823 51.972 72.4335 52.1333 72.0274 52.1333C71.6213 52.1333 71.2318 51.972 70.9446 51.6848C70.6574 51.3977 70.4961 51.0082 70.4961 50.6021V48.0296C68.9229 47.6764 67.5165 46.7987 66.5079 45.5407C65.4993 44.2826 64.9485 42.719 64.946 41.1066C64.946 40.7005 65.1073 40.311 65.3945 40.0238C65.6817 39.7366 66.0711 39.5753 66.4772 39.5753C66.8834 39.5753 67.2728 39.7366 67.56 40.0238C67.8472 40.311 68.0085 40.7005 68.0085 41.1066C68.0093 41.9032 68.2455 42.6818 68.6875 43.3445C69.1295 44.0073 69.7575 44.5246 70.4926 44.8314H70.4961ZM73.5586 44.8411C74.3036 44.5413 74.9419 44.0256 75.3914 43.3601C75.841 42.6947 76.0812 41.91 76.0812 41.107C76.0812 40.304 75.841 39.5193 75.3914 38.8539C74.9419 38.1884 74.3036 37.6727 73.5586 37.3729V44.8411ZM70.4961 33.6988V26.2499C69.7598 26.5553 69.1305 27.0721 68.6877 27.735C68.245 28.3979 68.0087 29.1772 68.0087 29.9744C68.0087 30.7715 68.245 31.5508 68.6877 32.2137C69.1305 32.8767 69.7598 33.3934 70.4961 33.6988Z" fill="#157BC0"/>
</svg>
