<svg width="32" height="52" viewBox="0 0 32 52" fill="none" xmlns="http://www.w3.org/2000/svg">
<path d="M16 0C7.1616 0 0 7.1328 0 15.968C0 31.2448 16 51.168 16 51.168C16 51.168 32 31.2416 32 15.968C32 7.136 24.8384 0 16 0ZM16 24.8032C13.7085 24.8032 11.5109 23.8929 9.8906 22.2726C8.27028 20.6523 7.36 18.4547 7.36 16.1632C7.36 13.8717 8.27028 11.6741 9.8906 10.0538C11.5109 8.43348 13.7085 7.5232 16 7.5232C18.2915 7.5232 20.4891 8.43348 22.1094 10.0538C23.7297 11.6741 24.64 13.8717 24.64 16.1632C24.64 18.4547 23.7297 20.6523 22.1094 22.2726C20.4891 23.8929 18.2915 24.8032 16 24.8032Z" fill="url(#paint0_linear)"/>
<defs>
<linearGradient id="paint0_linear" x1="16" y1="0" x2="16" y2="51.168" gradientUnits="userSpaceOnUse">
<stop stop-color="#157BC0"/>
<stop offset="1" stop-color="#42ABE0"/>
</linearGradient>
</defs>
</svg>
