<svg width="112" height="112" viewBox="0 0 112 112" fill="none" xmlns="http://www.w3.org/2000/svg">
<path d="M47.2544 90.0323C46.8483 90.0414 46.4552 89.8887 46.1616 89.608C45.8681 89.3272 45.6981 88.9413 45.689 88.5352C45.68 88.1291 45.8326 87.736 46.1134 87.4424C46.3941 87.1489 46.78 86.9789 47.1861 86.9698L48.0532 86.9304C48.4594 86.9118 48.8563 87.0552 49.1566 87.3291C49.457 87.6031 49.6363 87.9851 49.6549 88.3913C49.6736 88.7974 49.5302 89.1943 49.2563 89.4946C48.9823 89.795 48.6002 89.9743 48.1941 89.9929L47.3261 90.0323C47.3025 90.0323 47.278 90.0323 47.2544 90.0323ZM31.6138 79.6977C31.2077 79.6979 30.8184 79.8593 30.5312 80.1464C30.2441 80.4336 30.0827 80.8229 30.0825 81.2289V96.0908H11.375C10.9689 96.0908 10.5794 96.2522 10.2922 96.5393C10.0051 96.8265 9.84375 97.216 9.84375 97.6221C9.84375 98.0282 10.0051 98.4177 10.2922 98.7048C10.5794 98.992 10.9689 99.1533 11.375 99.1533H40.3778C40.7839 99.1533 41.1733 98.992 41.4605 98.7048C41.7477 98.4177 41.909 98.0282 41.909 97.6221V75.9221L49.3465 67.1108H68.1984C69.4533 67.1125 70.6699 67.5428 71.6469 68.3303C72.6239 69.1178 73.3027 70.2153 73.5709 71.4412L58.0545 75.2501C57.6908 75.3389 57.3723 75.5579 57.1591 75.8657C56.9459 76.1735 56.8529 76.5487 56.8976 76.9204C56.9423 77.2922 57.1217 77.6346 57.4018 77.8831C57.6818 78.1315 58.0432 78.2687 58.4176 78.2688C58.5412 78.269 58.6643 78.254 58.7842 78.2242L75.4163 74.1449H80.122C80.3837 74.1448 80.6409 74.0776 80.8692 73.9498L92.0815 67.6813C93.8232 66.7076 95.785 66.1955 97.7804 66.1938H98.8304L84.1321 80.5263C81.096 83.4782 77.1602 85.3304 72.9505 85.7886L53.4713 86.6828C53.0651 86.692 52.6793 86.8621 52.3986 87.1557C52.1179 87.4494 51.9654 87.8425 51.9746 88.2486C51.9837 88.6547 52.1539 89.0406 52.4475 89.3213C52.7411 89.602 53.1343 89.7545 53.5404 89.7453H53.6121L73.136 88.8484C73.1666 88.8484 73.1964 88.8484 73.2235 88.8414C78.1368 88.3194 82.7327 86.1635 86.275 82.7191L101.287 68.0803C101.698 67.6801 101.98 67.1666 102.097 66.6054C102.214 66.0442 102.161 65.4608 101.945 64.9298C101.729 64.3988 101.36 63.9442 100.884 63.6242C100.408 63.3041 99.8482 63.1332 99.2749 63.1331H97.7874C95.2689 63.1346 92.7927 63.7801 90.594 65.0082L79.723 71.0824H76.6246C76.2637 69.1102 75.2231 67.3268 73.6837 66.0421C72.1443 64.7575 70.2034 64.053 68.1984 64.0509H48.6325C48.4096 64.0509 48.1893 64.0995 47.9871 64.1933C47.7849 64.2872 47.6056 64.424 47.4618 64.5943L41.5345 71.6206C41.3922 71.4524 41.2151 71.3172 41.0153 71.2243C40.8156 71.1313 40.598 71.083 40.3778 71.0824H11.375C10.9689 71.0824 10.5794 71.2438 10.2922 71.5309C10.0051 71.8181 9.84375 72.2076 9.84375 72.6137C9.84375 73.0198 10.0051 73.4093 10.2922 73.6964C10.5794 73.9836 10.9689 74.1449 11.375 74.1449H38.85V96.0908H33.145V81.2289C33.1448 80.8229 32.9834 80.4336 32.6963 80.1464C32.4091 79.8593 32.0198 79.6979 31.6138 79.6977ZM51.0274 35.8278C51.3237 35.8859 51.6249 35.9152 51.9269 35.9153C52.6482 35.9141 53.3593 35.7442 54.0033 35.4192V56.7001C54.0035 57.1061 54.1649 57.4955 54.452 57.7826C54.7391 58.0697 55.1285 58.2311 55.5345 58.2313H88.8125C89.2185 58.2311 89.6079 58.0697 89.895 57.7826C90.1821 57.4955 90.3435 57.1061 90.3438 56.7001V39.5938C90.3438 39.1877 90.1824 38.7982 89.8953 38.5111C89.6081 38.2239 89.2186 38.0626 88.8125 38.0626C88.4064 38.0626 88.0169 38.2239 87.7297 38.5111C87.4426 38.7982 87.2812 39.1877 87.2812 39.5938V55.1688H81.7932V40.5248C81.793 40.1188 81.6316 39.7294 81.3445 39.4423C81.0574 39.1552 80.668 38.9938 80.262 38.9936H64.0841C63.678 38.9936 63.2885 39.1549 63.0014 39.4421C62.7142 39.7292 62.5529 40.1187 62.5529 40.5248V50.8962C62.5529 51.3023 62.7142 51.6918 63.0014 51.979C63.2885 52.2661 63.678 52.4274 64.0841 52.4274C64.4902 52.4274 64.8797 52.2661 65.1669 51.979C65.4541 51.6918 65.6154 51.3023 65.6154 50.8962V42.0587H78.7307V55.1749H57.0658V33.4032L72.1726 23.1928L89.8021 35.1086C90.3118 35.4655 90.8874 35.7174 91.4954 35.8496C92.1034 35.9818 92.7316 35.9916 93.3435 35.8786C93.9553 35.7655 94.5385 35.5318 95.0591 35.191C95.5797 34.8502 96.0273 34.4092 96.3757 33.8937C96.7241 33.3783 96.9665 32.7986 97.0886 32.1884C97.2107 31.5783 97.2101 30.95 97.0869 30.3401C96.9637 29.7302 96.7204 29.151 96.371 28.6361C96.0217 28.1212 95.5733 27.681 95.0521 27.3412L74.7985 13.6501C74.0246 13.1228 73.1099 12.8408 72.1735 12.8408C71.2371 12.8408 70.3224 13.1228 69.5485 13.6501L61.761 18.9132C61.5944 19.0258 61.4516 19.1701 61.3407 19.3379C61.2299 19.5057 61.1532 19.6937 61.115 19.8912C61.0768 20.0886 61.0779 20.2916 61.1182 20.4886C61.1585 20.6857 61.2371 20.8728 61.3497 21.0395C61.4624 21.2061 61.6067 21.3489 61.7745 21.4597C61.9423 21.5705 62.1303 21.6473 62.3277 21.6854C62.5251 21.7236 62.7282 21.7226 62.9252 21.6823C63.1222 21.642 63.3094 21.5633 63.476 21.4507L71.2635 16.1876C71.5317 16.005 71.8486 15.9073 72.1731 15.9073C72.4975 15.9073 72.8144 16.005 73.0826 16.1876L93.338 29.8778C93.515 29.9973 93.6667 30.1505 93.7845 30.3286C93.9022 30.5067 93.9838 30.7063 94.0244 30.9159C94.065 31.1256 94.0639 31.3412 94.0212 31.5504C93.9785 31.7596 93.895 31.9584 93.7755 32.1353C93.5281 32.4848 93.1554 32.7254 92.735 32.8069C92.3146 32.8884 91.879 32.8046 91.5189 32.5728L73.0301 20.0761C72.7769 19.905 72.4782 19.8136 72.1726 19.8136C71.867 19.8136 71.5684 19.905 71.3151 20.0761L54.6805 31.3198L52.8316 32.5693C52.6547 32.6889 52.456 32.7724 52.2468 32.8152C52.0376 32.858 51.8221 32.8591 51.6124 32.8186C51.4028 32.778 51.2032 32.6966 51.0251 32.5789C50.8469 32.4612 50.6937 32.3096 50.5741 32.1327C50.4546 31.9558 50.371 31.7571 50.3283 31.5479C50.2855 31.3387 50.2843 31.1232 50.3249 30.9135C50.3654 30.7039 50.4469 30.5043 50.5646 30.3262C50.6822 30.148 50.8339 29.9948 51.0107 29.8752L54.6534 27.4138C54.82 27.3012 54.9628 27.1569 55.0736 26.9891C55.1845 26.8213 55.2612 26.6333 55.2994 26.4359C55.3375 26.2384 55.3365 26.0354 55.2962 25.8384C55.2559 25.6414 55.1772 25.4542 55.0646 25.2876C54.952 25.121 54.8077 24.9782 54.6399 24.8673C54.4721 24.7565 54.2841 24.6798 54.0867 24.6416C53.8892 24.6034 53.6862 24.6045 53.4892 24.6448C53.2922 24.685 53.105 24.7637 52.9384 24.8763L49.2966 27.3377C48.5283 27.8569 47.9312 28.5922 47.5808 29.4507C47.2304 30.3092 47.1424 31.2524 47.3281 32.1609C47.5137 33.0694 47.9646 33.9024 48.6237 34.5547C49.2828 35.2069 50.1205 35.6491 51.0309 35.8252L51.0274 35.8278ZM58.0659 24.7915C58.3713 24.7918 58.6697 24.7003 58.9225 24.529L59.4667 24.1606C59.8032 23.9332 60.0356 23.5814 60.1127 23.1826C60.1899 22.7839 60.1054 22.3708 59.878 22.0343C59.6506 21.6978 59.2988 21.4655 58.9 21.3883C58.5013 21.3112 58.0882 21.3957 57.7517 21.6231L57.2075 21.9915C56.9358 22.175 56.7302 22.441 56.621 22.7502C56.5118 23.0594 56.5047 23.3955 56.6008 23.709C56.6969 24.0225 56.8912 24.2969 57.1549 24.4918C57.4186 24.6866 57.738 24.7917 58.0659 24.7915Z" fill="#157BC0"/>
</svg>
