<svg width="94" height="88" viewBox="0 0 94 88" fill="none" xmlns="http://www.w3.org/2000/svg">
<path d="M38.2544 78.0323C37.8483 78.0414 37.4552 77.8887 37.1616 77.608C36.8681 77.3272 36.6981 76.9413 36.689 76.5352C36.68 76.1291 36.8326 75.736 37.1134 75.4424C37.3941 75.1489 37.78 74.9789 38.1861 74.9698L39.0532 74.9304C39.4594 74.9118 39.8563 75.0552 40.1566 75.3291C40.457 75.6031 40.6363 75.9851 40.6549 76.3913C40.6736 76.7974 40.5302 77.1943 40.2563 77.4946C39.9823 77.795 39.6002 77.9743 39.1941 77.9929L38.3261 78.0323C38.3025 78.0323 38.278 78.0323 38.2544 78.0323ZM22.6138 67.6977C22.2077 67.6979 21.8184 67.8593 21.5312 68.1464C21.2441 68.4336 21.0827 68.8229 21.0825 69.2289V84.0908H2.375C1.96889 84.0908 1.57941 84.2522 1.29224 84.5393C1.00508 84.8265 0.84375 85.216 0.84375 85.6221C0.84375 86.0282 1.00508 86.4177 1.29224 86.7048C1.57941 86.992 1.96889 87.1533 2.375 87.1533H31.3778C31.7839 87.1533 32.1733 86.992 32.4605 86.7048C32.7477 86.4177 32.909 86.0282 32.909 85.6221V63.9221L40.3465 55.1108H59.1984C60.4533 55.1125 61.6699 55.5428 62.6469 56.3303C63.6239 57.1178 64.3027 58.2153 64.5709 59.4412L49.0545 63.2501C48.6908 63.3389 48.3723 63.5579 48.1591 63.8657C47.9459 64.1735 47.8529 64.5487 47.8976 64.9204C47.9423 65.2922 48.1217 65.6346 48.4018 65.8831C48.6818 66.1315 49.0432 66.2687 49.4176 66.2688C49.5412 66.269 49.6643 66.254 49.7842 66.2242L66.4163 62.1449H71.122C71.3837 62.1448 71.6409 62.0776 71.8692 61.9498L83.0815 55.6813C84.8232 54.7076 86.785 54.1955 88.7804 54.1938H89.8304L75.1321 68.5263C72.096 71.4782 68.1602 73.3304 63.9505 73.7886L44.4713 74.6828C44.0651 74.692 43.6793 74.8621 43.3986 75.1557C43.1179 75.4494 42.9654 75.8425 42.9746 76.2486C42.9837 76.6547 43.1539 77.0406 43.4475 77.3213C43.7411 77.602 44.1343 77.7545 44.5404 77.7453H44.6121L64.136 76.8484C64.1666 76.8484 64.1964 76.8484 64.2235 76.8414C69.1368 76.3194 73.7327 74.1635 77.275 70.7191L92.2874 56.0803C92.6978 55.6801 92.9796 55.1666 93.0967 54.6054C93.2139 54.0442 93.1611 53.4608 92.9451 52.9298C92.7291 52.3988 92.3596 51.9442 91.884 51.6242C91.4084 51.3041 90.8482 51.1332 90.2749 51.1331H88.7874C86.2689 51.1346 83.7927 51.7801 81.594 53.0082L70.723 59.0824H67.6246C67.2637 57.1102 66.2231 55.3268 64.6837 54.0421C63.1443 52.7575 61.2034 52.053 59.1984 52.0509H39.6325C39.4096 52.0509 39.1893 52.0995 38.9871 52.1933C38.7849 52.2872 38.6056 52.424 38.4618 52.5943L32.5345 59.6206C32.3922 59.4524 32.2151 59.3172 32.0153 59.2243C31.8156 59.1313 31.598 59.083 31.3778 59.0824H2.375C1.96889 59.0824 1.57941 59.2438 1.29224 59.5309C1.00508 59.8181 0.84375 60.2076 0.84375 60.6137C0.84375 61.0198 1.00508 61.4093 1.29224 61.6964C1.57941 61.9836 1.96889 62.1449 2.375 62.1449H29.85V84.0908H24.145V69.2289C24.1448 68.8229 23.9834 68.4336 23.6963 68.1464C23.4091 67.8593 23.0198 67.6979 22.6138 67.6977ZM42.0274 23.8278C42.3237 23.8859 42.6249 23.9152 42.9269 23.9153C43.6482 23.9141 44.3593 23.7442 45.0033 23.4192V44.7001C45.0035 45.1061 45.1649 45.4955 45.452 45.7826C45.7391 46.0697 46.1285 46.2311 46.5345 46.2313H79.8125C80.2185 46.2311 80.6079 46.0697 80.895 45.7826C81.1821 45.4955 81.3435 45.1061 81.3438 44.7001V27.5938C81.3438 27.1877 81.1824 26.7982 80.8953 26.5111C80.6081 26.2239 80.2186 26.0626 79.8125 26.0626C79.4064 26.0626 79.0169 26.2239 78.7297 26.5111C78.4426 26.7982 78.2812 27.1877 78.2812 27.5938V43.1688H72.7932V28.5248C72.793 28.1188 72.6316 27.7294 72.3445 27.4423C72.0574 27.1552 71.668 26.9938 71.262 26.9936H55.0841C54.678 26.9936 54.2885 27.1549 54.0014 27.4421C53.7142 27.7292 53.5529 28.1187 53.5529 28.5248V38.8962C53.5529 39.3023 53.7142 39.6918 54.0014 39.979C54.2885 40.2661 54.678 40.4274 55.0841 40.4274C55.4902 40.4274 55.8797 40.2661 56.1669 39.979C56.4541 39.6918 56.6154 39.3023 56.6154 38.8962V30.0587H69.7307V43.1749H48.0658V21.4032L63.1726 11.1928L80.8021 23.1086C81.3118 23.4655 81.8874 23.7174 82.4954 23.8496C83.1034 23.9818 83.7316 23.9916 84.3435 23.8786C84.9553 23.7655 85.5385 23.5318 86.0591 23.191C86.5797 22.8502 87.0273 22.4092 87.3757 21.8937C87.7241 21.3783 87.9665 20.7986 88.0886 20.1884C88.2107 19.5783 88.2101 18.95 88.0869 18.3401C87.9637 17.7302 87.7204 17.151 87.371 16.6361C87.0217 16.1212 86.5733 15.681 86.0521 15.3412L65.7985 1.65008C65.0246 1.12282 64.1099 0.84082 63.1735 0.84082C62.2371 0.84082 61.3224 1.12282 60.5485 1.65008L52.761 6.9132C52.5944 7.02581 52.4516 7.17013 52.3407 7.33793C52.2299 7.50573 52.1532 7.69371 52.115 7.89116C52.0768 8.0886 52.0779 8.29162 52.1182 8.48865C52.1585 8.68567 52.2371 8.87284 52.3497 9.03945C52.4624 9.20607 52.6067 9.34887 52.7745 9.45971C52.9423 9.57055 53.1303 9.64725 53.3277 9.68544C53.5251 9.72363 53.7282 9.72255 53.9252 9.68228C54.1222 9.642 54.3094 9.56331 54.476 9.4507L62.2635 4.18758C62.5317 4.00498 62.8486 3.90733 63.1731 3.90733C63.4975 3.90733 63.8144 4.00498 64.0826 4.18758L84.338 17.8778C84.515 17.9973 84.6667 18.1505 84.7845 18.3286C84.9022 18.5067 84.9838 18.7063 85.0244 18.9159C85.065 19.1256 85.0639 19.3412 85.0212 19.5504C84.9785 19.7596 84.895 19.9584 84.7755 20.1353C84.5281 20.4848 84.1554 20.7254 83.735 20.8069C83.3146 20.8884 82.879 20.8046 82.5189 20.5728L64.0301 8.07608C63.7769 7.90503 63.4782 7.81364 63.1726 7.81364C62.867 7.81364 62.5684 7.90503 62.3151 8.07608L45.6805 19.3198L43.8316 20.5693C43.6547 20.6889 43.456 20.7724 43.2468 20.8152C43.0376 20.858 42.8221 20.8591 42.6124 20.8186C42.4028 20.778 42.2032 20.6966 42.0251 20.5789C41.8469 20.4612 41.6937 20.3096 41.5741 20.1327C41.4546 19.9558 41.371 19.7571 41.3283 19.5479C41.2855 19.3387 41.2843 19.1232 41.3249 18.9135C41.3654 18.7039 41.4469 18.5043 41.5646 18.3262C41.6822 18.148 41.8339 17.9948 42.0107 17.8752L45.6534 15.4138C45.82 15.3012 45.9628 15.1569 46.0736 14.9891C46.1845 14.8213 46.2612 14.6333 46.2994 14.4359C46.3375 14.2384 46.3365 14.0354 46.2962 13.8384C46.2559 13.6414 46.1772 13.4542 46.0646 13.2876C45.952 13.121 45.8077 12.9782 45.6399 12.8673C45.4721 12.7565 45.2841 12.6798 45.0867 12.6416C44.8892 12.6034 44.6862 12.6045 44.4892 12.6448C44.2922 12.685 44.105 12.7637 43.9384 12.8763L40.2966 15.3377C39.5283 15.8569 38.9312 16.5922 38.5808 17.4507C38.2304 18.3092 38.1424 19.2524 38.3281 20.1609C38.5137 21.0694 38.9646 21.9024 39.6237 22.5547C40.2828 23.2069 41.1205 23.6491 42.0309 23.8252L42.0274 23.8278ZM49.0659 12.7915C49.3713 12.7918 49.6697 12.7003 49.9225 12.529L50.4667 12.1606C50.8032 11.9332 51.0356 11.5814 51.1127 11.1826C51.1899 10.7839 51.1054 10.3708 50.878 10.0343C50.6506 9.69783 50.2988 9.46547 49.9 9.38834C49.5013 9.31122 49.0882 9.39565 48.7517 9.62308L48.2075 9.99145C47.9358 10.175 47.7302 10.441 47.621 10.7502C47.5118 11.0594 47.5047 11.3955 47.6008 11.709C47.6969 12.0225 47.8912 12.2969 48.1549 12.4918C48.4186 12.6866 48.738 12.7917 49.0659 12.7915Z" fill="#157BC0"/>
</svg>
