<svg width="86" height="94" viewBox="0 0 86 94" fill="none" xmlns="http://www.w3.org/2000/svg">
<path d="M18.711 32.125C18.3049 32.125 17.9154 31.9637 17.6282 31.6765C17.3411 31.3893 17.1797 30.9999 17.1797 30.5938C17.1797 30.1876 17.3411 29.7982 17.6282 29.511C17.9154 29.2238 18.3049 29.0625 18.711 29.0625H19.3751C19.7812 29.0625 20.1707 29.2238 20.4579 29.511C20.745 29.7982 20.9064 30.1876 20.9064 30.5938C20.9064 30.9999 20.745 31.3893 20.4579 31.6765C20.1707 31.9637 19.7812 32.125 19.3751 32.125H18.711ZM85.9477 9.96212C85.9479 9.76101 85.9083 9.56184 85.8314 9.37601C85.7545 9.19017 85.6417 9.02132 85.4995 8.87911C85.3573 8.7369 85.1884 8.62411 85.0026 8.5472C84.8168 8.47029 84.6176 8.43076 84.4165 8.43087H79.1726C78.7665 8.43087 78.377 8.5922 78.0899 8.87937C77.8027 9.16653 77.6414 9.55601 77.6414 9.96212C77.6414 10.3682 77.8027 10.7577 78.0899 11.0449C78.377 11.332 78.7665 11.4934 79.1726 11.4934H82.8852V29.0625H25.2814C24.8753 29.0625 24.4858 29.2238 24.1986 29.511C23.9114 29.7982 23.7501 30.1876 23.7501 30.5938C23.7501 30.9999 23.9114 31.3893 24.1986 31.6765C24.4858 31.9637 24.8753 32.125 25.2814 32.125H82.8852V53.5625C82.8852 53.9686 83.0466 54.3581 83.3337 54.6453C83.6209 54.9324 84.0104 55.0938 84.4165 55.0938C84.8226 55.0938 85.2121 54.9324 85.4992 54.6453C85.7864 54.3581 85.9477 53.9686 85.9477 53.5625V9.96212ZM26.9526 8.42737H63.6414V6.3125C63.6414 4.8621 64.2175 3.4711 65.2431 2.44551C66.2687 1.41992 67.6597 0.84375 69.1101 0.84375C70.5605 0.84375 71.9515 1.41992 72.9771 2.44551C74.0027 3.4711 74.5789 4.8621 74.5789 6.3125V13.6039C74.5789 15.0543 74.0027 16.4453 72.9771 17.4709C71.9515 18.4965 70.5605 19.0726 69.1101 19.0726C67.6597 19.0726 66.2687 18.4965 65.2431 17.4709C64.2175 16.4453 63.6414 15.0543 63.6414 13.6039V11.4899H26.9526C26.5465 11.4899 26.157 11.3285 25.8699 11.0414C25.5827 10.7542 25.4214 10.3647 25.4214 9.95862C25.4214 9.55251 25.5827 9.16303 25.8699 8.87587C26.157 8.5887 26.5465 8.42737 26.9526 8.42737ZM66.7039 13.6039C66.7039 14.2421 66.9574 14.8541 67.4086 15.3054C67.8599 15.7566 68.4719 16.0101 69.1101 16.0101C69.7483 16.0101 70.3603 15.7566 70.8116 15.3054C71.2629 14.8541 71.5164 14.2421 71.5164 13.6039V6.3125C71.5164 5.67432 71.2629 5.06228 70.8116 4.61102C70.3603 4.15976 69.7483 3.90625 69.1101 3.90625C68.4719 3.90625 67.8599 4.15976 67.4086 4.61102C66.9574 5.06228 66.7039 5.67432 66.7039 6.3125V13.6039ZM85.4997 79.9473L72.7387 92.7074C72.4517 92.9946 72.0624 93.156 71.6564 93.1562H1.58374C1.17763 93.1562 0.788149 92.9949 0.500984 92.7078C0.213819 92.4206 0.0524905 92.0311 0.0524905 91.625V9.95862C0.0523755 9.75751 0.091904 9.55834 0.168816 9.37251C0.245728 9.18667 0.358514 9.01782 0.500727 8.87561C0.642939 8.7334 0.811789 8.62061 0.997621 8.5437C1.18345 8.46679 1.38262 8.42726 1.58374 8.42737H11.4214V6.3125C11.4214 4.8621 11.9975 3.4711 13.0231 2.44551C14.0487 1.41992 15.4397 0.84375 16.8901 0.84375C18.3405 0.84375 19.7315 1.41992 20.7571 2.44551C21.7827 3.4711 22.3589 4.8621 22.3589 6.3125V13.6039C22.3589 15.0543 21.7827 16.4453 20.7571 17.4709C19.7315 18.4965 18.3405 19.0726 16.8901 19.0726C15.4397 19.0726 14.0487 18.4965 13.0231 17.4709C11.9975 16.4453 11.4214 15.0543 11.4214 13.6039V11.4899H3.11499V29.0625H12.9526C13.3587 29.0625 13.7482 29.2238 14.0354 29.511C14.3225 29.7982 14.4839 30.1876 14.4839 30.5938C14.4839 30.9999 14.3225 31.3893 14.0354 31.6765C13.7482 31.9637 13.3587 32.125 12.9526 32.125H3.11499V90.0938H71.022L80.7205 80.3961H73.1876V84.807C73.1876 85.2131 73.0263 85.6026 72.7391 85.8898C72.452 86.1769 72.0625 86.3382 71.6564 86.3382C71.2503 86.3382 70.8608 86.1769 70.5736 85.8898C70.2864 85.6026 70.1251 85.2131 70.1251 84.807V78.8649C70.1251 78.4588 70.2864 78.0693 70.5736 77.7821C70.8608 77.495 71.2503 77.3336 71.6564 77.3336H82.8852V64.9375C82.8852 64.5314 83.0466 64.1419 83.3337 63.8547C83.6209 63.5676 84.0104 63.4062 84.4165 63.4062C84.8226 63.4062 85.2121 63.5676 85.4992 63.8547C85.7864 64.1419 85.9477 64.5314 85.9477 64.9375V78.8649C85.9478 79.0659 85.9083 79.2649 85.8314 79.4506C85.7545 79.6363 85.6418 79.8051 85.4997 79.9473ZM14.4839 13.6039C14.4839 14.2421 14.7374 14.8541 15.1886 15.3054C15.6399 15.7566 16.2519 16.0101 16.8901 16.0101C17.5283 16.0101 18.1403 15.7566 18.5916 15.3054C19.0428 14.8541 19.2964 14.2421 19.2964 13.6039V6.3125C19.2964 5.67432 19.0428 5.06228 18.5916 4.61102C18.1403 4.15976 17.5283 3.90625 16.8901 3.90625C16.2519 3.90625 15.6399 4.15976 15.1886 4.61102C14.7374 5.06228 14.4839 5.67432 14.4839 6.3125V13.6039ZM85.9477 58.7031C85.9477 58.297 85.7864 57.9075 85.4992 57.6204C85.2121 57.3332 84.8226 57.1719 84.4165 57.1719C84.0104 57.1719 83.6209 57.3332 83.3337 57.6204C83.0466 57.9075 82.8852 58.297 82.8852 58.7031V59.4688C82.8852 59.8749 83.0466 60.2643 83.3337 60.5515C83.6209 60.8387 84.0104 61 84.4165 61C84.8226 61 85.2121 60.8387 85.4992 60.5515C85.7864 60.2643 85.9477 59.8749 85.9477 59.4688V58.7031ZM24.1797 49.625C24.1797 50.0311 24.0184 50.4206 23.7312 50.7078C23.4441 50.9949 23.0546 51.1562 22.6485 51.1562H14.7735C14.3674 51.156 13.9781 50.9946 13.691 50.7075C13.4039 50.4204 13.2425 50.031 13.2422 49.625V41.75C13.2425 41.344 13.4039 40.9546 13.691 40.6675C13.9781 40.3804 14.3674 40.219 14.7735 40.2188H22.6485C23.0546 40.2188 23.4441 40.3801 23.7312 40.6672C24.0184 40.9544 24.1797 41.3439 24.1797 41.75V49.625ZM21.1172 43.2812H16.3047V48.0938H21.1172V43.2812ZM29.4376 49.625V41.75C29.4378 41.344 29.5992 40.9546 29.8864 40.6675C30.1735 40.3804 30.5628 40.219 30.9689 40.2188H38.8439C39.2499 40.219 39.6393 40.3804 39.9264 40.6675C40.2135 40.9546 40.3749 41.344 40.3751 41.75V49.625C40.3749 50.031 40.2135 50.4204 39.9264 50.7075C39.6393 50.9946 39.2499 51.156 38.8439 51.1562H30.9689C30.5628 51.156 30.1735 50.9946 29.8864 50.7075C29.5992 50.4204 29.4378 50.031 29.4376 49.625ZM32.5001 48.0938H37.3126V43.2812H32.5001V48.0938ZM47.1616 40.2188C46.9601 40.2182 46.7605 40.2573 46.5742 40.334C46.3878 40.4107 46.2184 40.5234 46.0757 40.6656C45.933 40.8079 45.8197 40.9769 45.7424 41.1629C45.6651 41.349 45.6252 41.5485 45.6251 41.75V49.625C45.6253 50.031 45.7868 50.4204 46.0739 50.7075C46.361 50.9946 46.7503 51.156 47.1564 51.1562H55.0314C55.4374 51.156 55.8268 50.9946 56.1139 50.7075C56.401 50.4204 56.5624 50.031 56.5626 49.625V41.75C56.5626 41.3439 56.4013 40.9544 56.1141 40.6672C55.827 40.3801 55.4375 40.2188 55.0314 40.2188C54.6253 40.2188 54.2358 40.3801 53.9486 40.6672C53.6614 40.9544 53.5001 41.3439 53.5001 41.75V48.0938H48.6876V41.75C48.6874 41.3444 48.5263 40.9555 48.2398 40.6684C47.9532 40.3814 47.5646 40.2197 47.159 40.2188H47.1616ZM61.8205 49.625V41.75C61.8205 41.3439 61.9818 40.9544 62.269 40.6672C62.5561 40.3801 62.9456 40.2188 63.3517 40.2188H71.2267C71.6328 40.219 72.0221 40.3804 72.3092 40.6675C72.5964 40.9546 72.7578 41.344 72.758 41.75V49.625C72.7578 50.031 72.5964 50.4204 72.3092 50.7075C72.0221 50.9946 71.6328 51.156 71.2267 51.1562H63.3517C62.9456 51.1562 62.5561 50.9949 62.269 50.7078C61.9818 50.4206 61.8205 50.0311 61.8205 49.625ZM64.883 48.0938H69.6955V43.2812H64.883V48.0938ZM24.1797 57.0625C24.1797 56.6564 24.0184 56.2669 23.7312 55.9797C23.4441 55.6926 23.0546 55.5312 22.6485 55.5312H14.7735C14.3674 55.5312 13.9779 55.6926 13.6907 55.9797C13.4036 56.2669 13.2422 56.6564 13.2422 57.0625C13.2422 57.4686 13.4036 57.8581 13.6907 58.1453C13.9779 58.4324 14.3674 58.5938 14.7735 58.5938H21.1172V63.4062H14.7735C14.3674 63.4062 13.9779 63.5676 13.6907 63.8547C13.4036 64.1419 13.2422 64.5314 13.2422 64.9375C13.2422 65.3436 13.4036 65.7331 13.6907 66.0203C13.9779 66.3074 14.3674 66.4688 14.7735 66.4688H22.6485C23.0546 66.4688 23.4441 66.3074 23.7312 66.0203C24.0184 65.7331 24.1797 65.3436 24.1797 64.9375V57.0625ZM29.435 57.0625C29.4352 56.6565 29.5966 56.2671 29.8837 55.98C30.1709 55.6929 30.5602 55.5315 30.9662 55.5312H38.8412C39.0425 55.531 39.2419 55.5704 39.4279 55.6473C39.6139 55.7241 39.783 55.8369 39.9254 55.9791C40.0679 56.1213 40.1809 56.2901 40.2581 56.476C40.3352 56.6619 40.375 56.8612 40.3751 57.0625V64.9375C40.3749 65.3435 40.2135 65.7329 39.9264 66.02C39.6393 66.3071 39.2499 66.4685 38.8439 66.4688H30.9689C30.5628 66.4685 30.1735 66.3071 29.8864 66.02C29.5992 65.7329 29.4378 65.3435 29.4376 64.9375L29.435 57.0625ZM32.5001 63.4062H37.3126V58.5938H32.5001V63.4062ZM45.6251 57.0625C45.6253 56.6565 45.7868 56.2671 46.0739 55.98C46.361 55.6929 46.7503 55.5315 47.1564 55.5312H55.0314C55.4374 55.5315 55.8268 55.6929 56.1139 55.98C56.401 56.2671 56.5624 56.6565 56.5626 57.0625V64.9375C56.5624 65.3435 56.401 65.7329 56.1139 66.02C55.8268 66.3071 55.4374 66.4685 55.0314 66.4688H47.1564C46.7503 66.4685 46.361 66.3071 46.0739 66.02C45.7868 65.7329 45.6253 65.3435 45.6251 64.9375V57.0625ZM48.6876 63.4062H53.5001V58.5938H48.6876V63.4062ZM61.8205 57.0625C61.8205 56.6564 61.9818 56.2669 62.269 55.9797C62.5561 55.6926 62.9456 55.5312 63.3517 55.5312H71.2267C71.6328 55.5315 72.0221 55.6929 72.3092 55.98C72.5964 56.2671 72.7578 56.6565 72.758 57.0625V64.9375C72.7578 65.3435 72.5964 65.7329 72.3092 66.02C72.0221 66.3071 71.6328 66.4685 71.2267 66.4688H63.3517C62.9456 66.4688 62.5561 66.3074 62.269 66.0203C61.9818 65.7331 61.8205 65.3436 61.8205 64.9375V57.0625ZM64.883 63.4062H69.6955V58.5938H64.883V63.4062ZM24.1797 72.375V80.25C24.1797 80.6561 24.0184 81.0456 23.7312 81.3328C23.4441 81.6199 23.0546 81.7812 22.6485 81.7812H14.7735C14.3674 81.781 13.9781 81.6196 13.691 81.3325C13.4039 81.0454 13.2425 80.656 13.2422 80.25V72.375C13.2425 71.969 13.4039 71.5796 13.691 71.2925C13.9781 71.0054 14.3674 70.844 14.7735 70.8438H22.6485C23.0546 70.8438 23.4441 71.0051 23.7312 71.2922C24.0184 71.5794 24.1797 71.9689 24.1797 72.375ZM21.1172 73.9062H16.3047V78.7188H21.1172V73.9062ZM29.4376 72.375C29.4378 71.969 29.5992 71.5796 29.8864 71.2925C30.1735 71.0054 30.5628 70.844 30.9689 70.8438H38.8439C39.2499 70.844 39.6393 71.0054 39.9264 71.2925C40.2135 71.5796 40.3749 71.969 40.3751 72.375V80.25C40.3749 80.656 40.2135 81.0454 39.9264 81.3325C39.6393 81.6196 39.2499 81.781 38.8439 81.7812H30.9689C30.5628 81.781 30.1735 81.6196 29.8864 81.3325C29.5992 81.0454 29.4378 80.656 29.4376 80.25V72.375ZM32.5001 78.7188H37.3126V73.9062H32.5001V78.7188ZM45.6251 72.375C45.6253 71.969 45.7868 71.5796 46.0739 71.2925C46.361 71.0054 46.7503 70.844 47.1564 70.8438H55.0314C55.4374 70.844 55.8268 71.0054 56.1139 71.2925C56.401 71.5796 56.5624 71.969 56.5626 72.375V80.25C56.5624 80.656 56.401 81.0454 56.1139 81.3325C55.8268 81.6196 55.4374 81.781 55.0314 81.7812H47.1564C46.7503 81.781 46.361 81.6196 46.0739 81.3325C45.7868 81.0454 45.6253 80.656 45.6251 80.25V72.375ZM48.6876 78.7188H53.5001V73.9062H48.6876V78.7188Z" fill="#157BC0"/>
</svg>
