<svg width="94" height="88" viewBox="0 0 94 88" fill="none" xmlns="http://www.w3.org/2000/svg">
<path d="M2.375 84.0907H29.85V62.1448H24.145V74.6976C24.145 75.1037 23.9837 75.4932 23.6965 75.7803C23.4093 76.0675 23.0199 76.2288 22.6138 76.2288C22.2076 76.2288 21.8182 76.0675 21.531 75.7803C21.2438 75.4932 21.0825 75.1037 21.0825 74.6976V62.1448H2.375C1.96889 62.1448 1.57941 61.9835 1.29224 61.6963C1.00508 61.4092 0.84375 61.0197 0.84375 60.6136C0.84375 60.2075 1.00508 59.818 1.29224 59.5308C1.57941 59.2436 1.96889 59.0823 2.375 59.0823H31.3778C31.5979 59.083 31.8152 59.1315 32.0148 59.2244C32.2144 59.3173 32.3914 59.4524 32.5336 59.6204L38.4618 52.5942C38.6056 52.4239 38.7849 52.287 38.9871 52.193C39.1893 52.099 39.4095 52.0502 39.6325 52.0499H59.1984C61.2034 52.052 63.1443 52.7565 64.6837 54.0411C66.2231 55.3258 67.2637 57.1092 67.6246 59.0814H70.723L81.587 53.0124C83.7859 51.7847 86.262 51.1393 88.7804 51.1373H90.2679C90.8411 51.1374 91.4014 51.3084 91.877 51.6284C92.3526 51.9485 92.7221 52.403 92.9381 52.9341C93.1541 53.4651 93.2069 54.0484 93.0897 54.6096C92.9726 55.1708 92.6908 55.6843 92.2804 56.0846L77.275 70.7181C73.7355 74.1625 69.1424 76.3193 64.2314 76.8431C64.2008 76.8431 64.171 76.8492 64.1439 76.8501L38.0225 78.0488H37.9516C37.5455 78.058 37.1524 77.9054 36.8587 77.6248C36.5651 77.3441 36.395 76.9582 36.3858 76.5521C36.3766 76.146 36.5292 75.7529 36.8099 75.4593C37.0905 75.1656 37.4764 74.9955 37.8825 74.9863L63.9575 73.7893C68.1675 73.3316 72.1035 71.4789 75.1391 68.5262L89.8391 54.1963H88.7891C86.7937 54.198 84.8319 54.7101 83.0903 55.6838L71.8692 61.9506C71.6409 62.0781 71.3836 62.145 71.122 62.1448H66.4145L49.7842 66.2249C49.6643 66.2547 49.5412 66.2697 49.4176 66.2696C49.0439 66.2686 48.6833 66.131 48.404 65.8827C48.1247 65.6343 47.9458 65.2924 47.9012 64.9212C47.8565 64.5502 47.9491 64.1755 48.1616 63.868C48.374 63.5605 48.6916 63.3413 49.0545 63.2517L64.5709 59.4419C64.302 58.2163 63.6231 57.1191 62.6462 56.3316C61.6694 55.5441 60.4531 55.1134 59.1984 55.1107H40.3439L32.9125 63.9254V85.6254C32.9125 85.8265 32.8729 86.0257 32.7959 86.2114C32.719 86.3972 32.6062 86.566 32.464 86.7082C32.3218 86.8504 32.153 86.9632 31.9672 87.0401C31.7815 87.1171 31.5823 87.1567 31.3813 87.1567H2.375C1.96889 87.1567 1.57941 86.9954 1.29224 86.7082C1.00508 86.421 0.84375 86.0316 0.84375 85.6254C0.84375 85.2193 1.00508 84.8298 1.29224 84.5427C1.57941 84.2555 1.96889 84.0942 2.375 84.0942V84.0907ZM24.145 79.9476V79.1461C24.145 78.74 23.9837 78.3505 23.6965 78.0633C23.4093 77.7761 23.0199 77.6148 22.6138 77.6148C22.2076 77.6148 21.8182 77.7761 21.531 78.0633C21.2438 78.3505 21.0825 78.74 21.0825 79.1461V79.9476C21.0825 80.3537 21.2438 80.7432 21.531 81.0303C21.8182 81.3175 22.2076 81.4788 22.6138 81.4788C23.0199 81.4788 23.4093 81.3175 23.6965 81.0303C23.9837 80.7432 24.145 80.3537 24.145 79.9476ZM49.8787 5.04144C49.713 5.1573 49.5719 5.30483 49.4635 5.47552C49.3552 5.6462 49.2816 5.83666 49.2473 6.03591C49.2129 6.23515 49.2183 6.43923 49.2632 6.63637C49.3081 6.83352 49.3916 7.01982 49.5088 7.18452C49.6261 7.34923 49.7748 7.48908 49.9464 7.596C50.118 7.70292 50.3091 7.77479 50.5087 7.80748C50.7082 7.84016 50.9122 7.833 51.109 7.78642C51.3057 7.73984 51.4913 7.65475 51.655 7.53607C55.5124 4.80011 60.229 3.55109 64.9349 4.01935C69.6408 4.48762 74.0188 6.64158 77.2614 10.084C80.504 13.5265 82.3926 18.0253 82.5789 22.7507C82.7653 27.4762 81.2368 32.1098 78.2753 35.7969C75.3138 39.484 71.1191 41.976 66.4647 42.8133C61.8102 43.6507 57.0099 42.777 52.9491 40.3533C48.8882 37.9295 45.8406 34.1193 44.3683 29.6251C42.8959 25.131 43.0981 20.2561 44.9376 15.8993C45.0959 15.5252 45.0991 15.1036 44.9465 14.7272C44.7939 14.3507 44.498 14.0503 44.1239 13.8921C43.7498 13.7338 43.3281 13.7306 42.9517 13.8832C42.5753 14.0358 42.2749 14.3317 42.1166 14.7058C39.9818 19.7525 39.7442 25.4009 41.4476 30.609C43.1509 35.8172 46.6803 40.2335 51.3847 43.0434C56.089 45.8533 61.6508 46.867 67.044 45.8976C72.4371 44.9282 77.2977 42.041 80.7291 37.7688C84.1604 33.4966 85.9309 28.1275 85.7139 22.6522C85.4969 17.1769 83.3071 11.9648 79.5485 7.97749C75.7899 3.99017 70.716 1.49669 65.2631 0.957082C59.8101 0.41747 54.346 1.86814 49.8787 5.04144ZM45.3961 11.7343C45.7167 11.9839 46.1233 12.0958 46.5265 12.0456C46.9297 11.9954 47.2964 11.7871 47.546 11.4666C47.6632 11.3152 47.7831 11.1673 47.9056 11.0203C48.1654 10.7081 48.2905 10.3054 48.2535 9.90093C48.2164 9.49643 48.0201 9.12324 47.7079 8.86344C47.5533 8.73481 47.3748 8.63788 47.1828 8.5782C46.9907 8.51852 46.7888 8.49725 46.5885 8.51562C46.184 8.5527 45.8108 8.74895 45.551 9.06119C45.4075 9.23619 45.2675 9.41119 45.1292 9.58619C44.8799 9.9065 44.768 10.3127 44.8181 10.7155C44.8681 11.1183 45.076 11.4848 45.3961 11.7343ZM61.4961 32.8314V24.8969C59.9214 24.5465 58.5132 23.6697 57.5039 22.4112C56.4947 21.1526 55.9446 19.5876 55.9446 17.9744C55.9446 16.3611 56.4947 14.7961 57.5039 13.5376C58.5132 12.279 59.9214 11.4022 61.4961 11.0518V8.47494C61.4961 8.06883 61.6574 7.67935 61.9446 7.39219C62.2318 7.10502 62.6213 6.94369 63.0274 6.94369C63.4335 6.94369 63.823 7.10502 64.1101 7.39219C64.3973 7.67935 64.5586 8.06883 64.5586 8.47494V11.0413C66.1392 11.3884 67.554 12.2645 68.5691 13.5248C69.5842 14.785 70.1387 16.354 70.1411 17.9722C70.1411 18.3783 69.9798 18.7678 69.6926 19.055C69.4055 19.3421 69.016 19.5034 68.6099 19.5034C68.2038 19.5034 67.8143 19.3421 67.5271 19.055C67.24 18.7678 67.0786 18.3783 67.0786 17.9722C67.0773 17.1698 66.8368 16.3859 66.388 15.7208C65.9391 15.0556 65.3022 14.5393 64.5586 14.2377V22.1748C66.1406 22.5192 67.5572 23.3945 68.573 24.6552C69.5888 25.9159 70.1427 27.4862 70.1427 29.1053C70.1427 30.7243 69.5888 32.2946 68.573 33.5553C67.5572 34.8161 66.1406 35.6913 64.5586 36.0357V38.6021C64.5586 39.0082 64.3973 39.3977 64.1101 39.6848C63.823 39.972 63.4335 40.1333 63.0274 40.1333C62.6213 40.1333 62.2318 39.972 61.9446 39.6848C61.6574 39.3977 61.4961 39.0082 61.4961 38.6021V36.0296C59.9229 35.6764 58.5165 34.7987 57.5079 33.5407C56.4993 32.2826 55.9485 30.719 55.946 29.1066C55.946 28.7005 56.1073 28.311 56.3945 28.0238C56.6817 27.7366 57.0711 27.5753 57.4772 27.5753C57.8834 27.5753 58.2728 27.7366 58.56 28.0238C58.8472 28.311 59.0085 28.7005 59.0085 29.1066C59.0093 29.9032 59.2455 30.6818 59.6875 31.3445C60.1295 32.0073 60.7575 32.5246 61.4926 32.8314H61.4961ZM64.5586 32.8411C65.3036 32.5413 65.9419 32.0256 66.3914 31.3601C66.841 30.6947 67.0812 29.91 67.0812 29.107C67.0812 28.304 66.841 27.5193 66.3914 26.8539C65.9419 26.1884 65.3036 25.6727 64.5586 25.3729V32.8411ZM61.4961 21.6988V14.2499C60.7598 14.5553 60.1305 15.0721 59.6877 15.735C59.245 16.3979 59.0087 17.1772 59.0087 17.9744C59.0087 18.7715 59.245 19.5508 59.6877 20.2137C60.1305 20.8767 60.7598 21.3934 61.4961 21.6988Z" fill="#157BC0"/>
</svg>
