<svg width="84" height="94" viewBox="0 0 84 94" fill="none" xmlns="http://www.w3.org/2000/svg">
<path d="M0.407715 47.0001C0.419052 37.8829 3.41987 29.021 8.95022 21.7727C14.4806 14.5244 22.2353 9.28968 31.0257 6.87085C31.2197 6.81793 31.4223 6.80375 31.6218 6.82911C31.8213 6.85447 32.0138 6.91888 32.1884 7.01866C32.363 7.11843 32.5163 7.25163 32.6394 7.41063C32.7626 7.56963 32.8532 7.75133 32.9061 7.94535C32.959 8.13937 32.9732 8.34191 32.9478 8.54141C32.9225 8.74091 32.8581 8.93346 32.7583 9.10807C32.6585 9.28268 32.5253 9.43593 32.3663 9.55906C32.2073 9.6822 32.0256 9.77281 31.8316 9.82572C23.1852 12.1919 15.6343 17.4986 10.4789 24.8322C5.32363 32.1659 2.88652 41.0674 3.58721 50.0043C4.2879 58.9413 8.08256 67.3542 14.3178 73.7948C20.5531 80.2353 28.8388 84.3004 37.7483 85.2901L35.3605 83.1376C35.0613 82.8651 34.8822 82.4852 34.8622 82.081C34.8423 81.6768 34.9832 81.2812 35.2541 80.9805C35.525 80.6799 35.9039 80.4987 36.308 80.4766C36.7121 80.4545 37.1085 80.5933 37.4106 80.8626L43.0255 85.9236C43.1991 86.0802 43.3345 86.2745 43.4214 86.4915C43.5083 86.7085 43.5444 86.9426 43.5268 87.1757C43.5092 87.4089 43.4385 87.6349 43.3201 87.8365C43.2016 88.038 43.0386 88.2098 42.8435 88.3386L35.931 92.9026C35.7633 93.0169 35.5745 93.0967 35.3757 93.1374C35.1769 93.1781 34.9719 93.1789 34.7728 93.1397C34.5737 93.1005 34.3843 93.0221 34.2158 92.9091C34.0472 92.7961 33.9028 92.6507 33.7909 92.4813C33.6791 92.312 33.602 92.1221 33.5641 91.9227C33.5263 91.7233 33.5285 91.5184 33.5706 91.3199C33.6126 91.1213 33.6938 90.9331 33.8092 90.7662C33.9247 90.5993 34.0722 90.457 34.2431 90.3476L37.3135 88.3211C27.1652 87.1576 17.7983 82.3053 10.9939 74.6868C4.18941 67.0683 0.42192 57.2149 0.407715 47.0001ZM46.6873 5.6791L49.7568 3.6526C50.0956 3.429 50.3318 3.07997 50.4132 2.68229C50.4947 2.28461 50.4149 1.87085 50.1913 1.53203C49.9677 1.19322 49.6187 0.957105 49.221 0.875632C48.8233 0.794159 48.4095 0.874003 48.0707 1.0976L41.1582 5.6616C40.963 5.79036 40.7999 5.96214 40.6814 6.16375C40.563 6.36536 40.4923 6.59144 40.4748 6.82463C40.4573 7.05782 40.4935 7.29192 40.5805 7.50895C40.6676 7.72597 40.8033 7.92016 40.9771 8.0766L46.5893 13.1376C46.891 13.4096 47.2884 13.5506 47.694 13.5296C48.0997 13.5086 48.4804 13.3273 48.7523 13.0256C49.0243 12.7239 49.1653 12.3265 49.1443 11.9209C49.1233 11.5153 48.942 11.1346 48.6403 10.8626L46.2525 8.7101C55.1221 9.69469 63.375 13.7274 69.6022 20.1196C75.8295 26.5119 79.6449 34.8675 80.3972 43.7598C81.1495 52.6522 78.792 61.53 73.7271 68.8775C68.6623 76.2251 61.2041 81.5869 52.626 84.0476C52.4326 84.1029 52.252 84.1957 52.0945 84.3208C51.9369 84.4458 51.8056 84.6007 51.7079 84.7765C51.6103 84.9524 51.5482 85.1457 51.5252 85.3455C51.5023 85.5453 51.5189 85.7477 51.5742 85.9411C51.6295 86.1345 51.7223 86.3151 51.8474 86.4726C51.9724 86.6301 52.1273 86.7615 52.3031 86.8591C52.479 86.9568 52.6723 87.0189 52.8721 87.0418C53.0719 87.0648 53.2743 87.0481 53.4677 86.9929C62.7191 84.339 70.7638 78.559 76.2309 70.638C81.6979 62.717 84.249 53.1453 83.4492 43.5541C82.6494 33.9629 78.5483 24.9458 71.8448 18.0397C65.1414 11.1336 56.2505 6.76586 46.6873 5.68085V5.6791ZM15.8637 29.7381C15.6908 29.6352 15.4992 29.5674 15.3 29.5385C15.1008 29.5097 14.8979 29.5204 14.7029 29.5701C14.5078 29.6197 14.3245 29.7073 14.1634 29.8279C14.0022 29.9485 13.8664 30.0996 13.7637 30.2727C9.59444 37.3066 8.20029 45.6433 9.85414 53.651C11.508 61.6588 16.0908 68.761 22.7055 73.5677C29.3202 78.3744 37.4907 80.5394 45.6177 79.639C53.7447 78.7387 61.2431 74.8377 66.6454 68.6998C72.0476 62.5618 74.9647 54.6286 74.8256 46.4531C74.6866 38.2776 71.5015 30.4482 65.8937 24.4974C60.2859 18.5467 52.6591 14.903 44.5062 14.2795C36.3533 13.656 28.2612 16.0976 21.8137 21.1263C21.6552 21.2501 21.5226 21.4039 21.4235 21.5789C21.3244 21.7539 21.2608 21.9467 21.2362 22.1462C21.2116 22.3458 21.2266 22.5483 21.2803 22.7421C21.334 22.9359 21.4253 23.1173 21.549 23.2758C21.6728 23.4343 21.8265 23.5669 22.0015 23.666C22.1765 23.7651 22.3693 23.8287 22.5689 23.8533C22.7685 23.8779 22.971 23.8629 23.1648 23.8092C23.3586 23.7556 23.5399 23.6642 23.6985 23.5405C28.9163 19.4422 35.3651 17.2257 42 17.2501C48.5597 17.2528 54.9345 19.4244 60.1318 23.4268C65.3291 27.4292 69.0571 33.0378 70.7355 39.3792C72.4139 45.7206 71.9484 52.4391 69.4115 58.4884C66.8746 64.5378 62.4087 69.5786 56.7091 72.826C51.0095 76.0734 44.3962 77.3451 37.8987 76.4431C31.4012 75.5412 25.3843 72.5162 20.7848 67.8391C16.1852 63.162 13.2613 57.0953 12.4681 50.5837C11.6749 44.072 13.057 37.4808 16.3992 31.8363C16.6062 31.487 16.6661 31.0698 16.5657 30.6764C16.4653 30.283 16.2128 29.9455 15.8637 29.7381ZM19.5711 27.4543C19.7286 27.2741 19.8878 27.0947 20.0497 26.918C20.315 26.617 20.4515 26.2239 20.4299 25.8233C20.4084 25.4227 20.2304 25.0466 19.9344 24.7758C19.6384 24.505 19.248 24.3612 18.847 24.3753C18.4461 24.3894 18.0667 24.5603 17.7905 24.8512C17.6155 25.0455 17.4405 25.2415 17.2655 25.4392C17.126 25.5895 17.0181 25.7663 16.9483 25.959C16.8784 26.1518 16.8479 26.3567 16.8587 26.5614C16.8695 26.7662 16.9213 26.9667 17.0111 27.151C17.1008 27.3354 17.2266 27.4998 17.3811 27.6346C17.5356 27.7694 17.7156 27.8718 17.9104 27.9358C18.1053 27.9997 18.3109 28.0238 18.5153 28.0068C18.7196 27.9897 18.9184 27.9318 19.0999 27.8364C19.2814 27.7411 19.442 27.6103 19.572 27.4517L19.5711 27.4543ZM62.5266 60.07C62.1981 59.8311 61.7883 59.7325 61.3872 59.7956C60.986 59.8588 60.6264 60.0786 60.3872 60.4069C60.207 60.6545 60.0206 60.8995 59.8298 61.1392C59.701 61.2962 59.6046 61.4773 59.5464 61.6719C59.4883 61.8666 59.4694 62.0708 59.4909 62.2728C59.5124 62.4748 59.5739 62.6705 59.6717 62.8485C59.7696 63.0264 59.9019 63.1832 60.0609 63.3095C60.22 63.4359 60.4026 63.5294 60.5981 63.5845C60.7936 63.6396 60.9981 63.6552 61.1997 63.6305C61.4013 63.6058 61.596 63.5413 61.7725 63.4406C61.9489 63.3399 62.1035 63.2051 62.2273 63.0441C62.4452 62.7694 62.657 62.492 62.8635 62.2094C63.1023 61.8809 63.201 61.4711 63.1378 61.0699C63.0746 60.6688 62.8548 60.3091 62.5266 60.07ZM42 72.817C47.5493 72.8333 52.9537 71.0467 57.4 67.7262C57.5613 67.6061 57.6974 67.4555 57.8005 67.2828C57.9036 67.1101 57.9717 66.9188 58.0008 66.7198C58.03 66.5209 58.0197 66.3181 57.9705 66.1231C57.9213 65.9281 57.8342 65.7447 57.7141 65.5834C57.594 65.422 57.4433 65.2859 57.2707 65.1828C57.098 65.0797 56.9067 65.0117 56.7077 64.9825C56.5087 64.9533 56.3059 64.9636 56.1109 65.0128C55.9159 65.062 55.7325 65.1491 55.5712 65.2692C51.1669 68.5347 45.7297 70.0961 40.2638 69.6649C34.798 69.2337 29.6728 66.8391 25.835 62.9235C21.9972 59.0078 19.706 53.8356 19.3847 48.3621C19.0633 42.8887 20.7336 37.484 24.0869 33.1461C27.4401 28.8083 32.2499 25.8304 37.6278 24.7627C43.0056 23.6949 48.5882 24.6093 53.3443 27.337C58.1005 30.0647 61.7089 34.4214 63.503 39.6024C65.2971 44.7834 65.1557 50.4386 63.105 55.5235C63.0247 55.7107 62.9827 55.9121 62.9813 56.1158C62.9798 56.3196 63.0191 56.5215 63.0967 56.7099C63.1743 56.8982 63.2887 57.0692 63.4333 57.2128C63.5778 57.3564 63.7495 57.4697 63.9384 57.546C64.1272 57.6224 64.3294 57.6604 64.5331 57.6576C64.7368 57.6549 64.9379 57.6115 65.1247 57.53C65.3114 57.4486 65.48 57.3307 65.6206 57.1833C65.7612 57.0359 65.8709 56.8619 65.9435 56.6715C68.0154 51.5447 68.3868 45.8881 67.0028 40.5344C65.6189 35.1807 62.5528 30.4127 58.2558 26.9323C53.9588 23.4518 48.658 21.4428 43.1337 21.2009C37.6093 20.9591 32.1532 22.4971 27.5684 25.5886C22.9837 28.6802 19.5126 33.1619 17.666 38.3742C15.8195 43.5864 15.695 49.2538 17.3109 54.5421C18.9269 59.8304 22.1979 64.4602 26.6424 67.7501C31.087 71.04 36.4703 72.8161 42 72.817ZM43.5312 34.9645V45.6124C45.4709 45.9648 47.2253 46.9869 48.4885 48.5004C49.7518 50.0139 50.4438 51.9228 50.4438 53.8942C50.4438 55.8657 49.7518 57.7745 48.4885 59.288C47.2253 60.8015 45.4709 61.8236 43.5312 62.1761V65.6551C43.5312 66.0612 43.3699 66.4507 43.0827 66.7379C42.7956 67.025 42.4061 67.1864 42 67.1864C41.5938 67.1864 41.2044 67.025 40.9172 66.7379C40.63 66.4507 40.4687 66.0612 40.4687 65.6551V62.17C38.5395 61.8054 36.7979 60.7793 35.5441 59.2684C34.2902 57.7576 33.6027 55.8567 33.6 53.8933C33.6 53.4872 33.7613 53.0978 34.0485 52.8106C34.3356 52.5234 34.7251 52.3621 35.1312 52.3621C35.5373 52.3621 35.9268 52.5234 36.214 52.8106C36.5011 53.0978 36.6625 53.4872 36.6625 53.8933C36.664 55.0442 37.0351 56.1642 37.7211 57.0883C38.4072 58.0124 39.3719 58.6917 40.4731 59.0261V48.3817C38.5422 48.0206 36.7983 46.9956 35.5434 45.4843C34.2886 43.9729 33.6017 42.0704 33.6017 40.106C33.6017 38.1416 34.2886 36.239 35.5434 34.7277C36.7983 33.2163 38.5422 32.1914 40.4731 31.8302V28.3451C40.4731 27.939 40.6344 27.5495 40.9216 27.2623C41.2087 26.9752 41.5982 26.8138 42.0043 26.8138C42.4104 26.8138 42.7999 26.9752 43.0871 27.2623C43.3743 27.5495 43.5356 27.939 43.5356 28.3451V31.8241C45.4739 32.1796 47.2266 33.2027 48.4893 34.7157C49.752 36.2287 50.4451 38.1362 50.4481 40.1069C50.4481 40.513 50.2868 40.9024 49.9996 41.1896C49.7124 41.4768 49.3229 41.6381 48.9168 41.6381C48.5107 41.6381 48.1212 41.4768 47.8341 41.1896C47.5469 40.9024 47.3856 40.513 47.3856 40.1069C47.3837 38.9486 47.0074 37.8221 46.3128 36.8953C45.6181 35.9685 44.6424 35.2912 43.5312 34.9645ZM40.4687 34.9741C39.3668 35.3071 38.4014 35.9859 37.7152 36.9101C37.0291 37.8344 36.6586 38.9549 36.6586 40.106C36.6586 41.2571 37.0291 42.3776 37.7152 43.3018C38.4014 44.226 39.3668 44.9048 40.4687 45.2379V34.9741ZM43.5312 48.7501V59.0357C44.6432 58.7103 45.6197 58.0333 46.3145 57.1061C47.0092 56.1789 47.3847 55.0515 47.3847 53.8929C47.3847 52.7343 47.0092 51.6069 46.3145 50.6797C45.6197 49.7525 44.6432 49.0755 43.5312 48.7501Z" fill="#157BC0"/>
</svg>
