<svg width="72" height="94" viewBox="0 0 72 94" fill="none" xmlns="http://www.w3.org/2000/svg">
<path d="M36 93.0486C30.2493 93.045 24.5847 91.6513 19.4888 88.9865C14.3929 86.3216 10.0166 82.4645 6.73277 77.7436C3.44894 73.0228 1.35486 67.5782 0.62893 61.8735C-0.0970003 56.1689 0.566729 50.3733 2.56358 44.9805C2.63361 44.792 2.74009 44.6191 2.87693 44.4717C3.01377 44.3244 3.1783 44.2054 3.36112 44.1217C3.54393 44.0379 3.74146 43.9909 3.94241 43.9835C4.14337 43.9761 4.34382 44.0083 4.53233 44.0783C4.72083 44.1484 4.8937 44.2548 5.04105 44.3917C5.1884 44.5285 5.30736 44.6931 5.39113 44.8759C5.4749 45.0587 5.52184 45.2562 5.52928 45.4572C5.53671 45.6581 5.50449 45.8586 5.43445 46.0471C2.60907 53.6374 2.70732 62.0073 5.71009 69.5292C8.71286 77.0512 14.4056 83.1877 21.6814 86.7457C28.9572 90.3036 37.2961 91.0288 45.0768 88.7801C52.8576 86.5314 59.524 81.4696 63.7801 74.5789C68.0362 67.6882 69.5777 59.4609 68.1049 51.4968C66.6321 43.5327 62.2503 36.4008 55.8114 31.4879C49.3725 26.5749 41.3367 24.232 33.2664 24.9146C25.196 25.5973 17.6679 29.2567 12.1457 35.1813C11.8688 35.4785 11.4853 35.6535 11.0794 35.6679C10.6735 35.6822 10.2785 35.5347 9.98139 35.2579C9.68423 34.981 9.50922 34.5975 9.49487 34.1916C9.48051 33.7857 9.62797 33.3907 9.90483 33.0936C14.3425 28.3461 19.9899 24.8976 26.2402 23.1186L26.9183 17.2228H23.4743C23.1754 17.2229 22.8831 17.1355 22.6333 16.9713C22.3835 16.8072 22.1872 16.5736 22.0686 16.2993C21.95 16.0249 21.9142 15.7219 21.9658 15.4274C22.0173 15.133 22.1539 14.8602 22.3587 14.6425L34.8843 1.32495C35.1804 1.02947 35.5816 0.863525 36 0.863525C36.4183 0.863525 36.8195 1.02947 37.1156 1.32495L49.6412 14.6425C49.846 14.8602 49.9826 15.133 50.0341 15.4274C50.0857 15.7219 50.05 16.0249 49.9313 16.2993C49.8127 16.5736 49.6164 16.8072 49.3666 16.9713C49.1168 17.1355 48.8245 17.2229 48.5256 17.2228H43.3631C42.957 17.2228 42.5675 17.0615 42.2803 16.7743C41.9932 16.4872 41.8318 16.0977 41.8318 15.6916C41.8318 15.2855 41.9932 14.896 42.2803 14.6088C42.5675 14.3217 42.957 14.1603 43.3631 14.1603H44.9818L36 4.6097L27.0163 14.1603H28.6351C28.851 14.1603 29.0644 14.2059 29.2615 14.2941C29.4585 14.3824 29.6346 14.5113 29.7783 14.6724C29.922 14.8335 30.03 15.0232 30.0952 15.229C30.1604 15.4348 30.1814 15.6521 30.1567 15.8666L29.4095 22.367C34.2846 21.4494 39.2976 21.5594 44.1277 22.69C48.9579 23.8206 53.4989 25.9468 57.4604 28.9327C61.4218 31.9186 64.7165 35.6985 67.1336 40.0305C69.5507 44.3625 71.0371 49.1513 71.4977 54.0906C71.9582 59.0299 71.3828 64.011 69.8082 68.7152C68.2337 73.4194 65.6946 77.7432 62.3535 81.41C59.0124 85.0769 54.9427 88.006 50.4048 90.0101C45.8669 92.0141 40.9607 93.049 36 93.0486ZM8.29483 37.41C8.12687 37.2993 7.93875 37.2228 7.74122 37.1849C7.54369 37.147 7.34062 37.1484 7.14364 37.189C6.94665 37.2297 6.7596 37.3087 6.59319 37.4217C6.42679 37.5347 6.28428 37.6794 6.17383 37.8475C6.01895 38.082 5.86758 38.32 5.71883 38.5588C5.60201 38.7294 5.52095 38.9219 5.48054 39.1246C5.44012 39.3274 5.44118 39.5363 5.48365 39.7386C5.52613 39.9409 5.60914 40.1326 5.72769 40.302C5.84623 40.4714 5.99785 40.615 6.1734 40.7242C6.34895 40.8334 6.5448 40.9059 6.74914 40.9374C6.95348 40.9689 7.16207 40.9586 7.36235 40.9073C7.56263 40.856 7.75044 40.7646 7.91446 40.6388C8.07847 40.5129 8.21531 40.3551 8.3167 40.175C8.45233 39.958 8.59058 39.7375 8.73145 39.5275C8.95393 39.1886 9.03291 38.7754 8.95105 38.3784C8.86919 37.9814 8.63319 37.6331 8.29483 37.41ZM55.2823 73.243C55.1502 73.404 55.0155 73.5623 54.8798 73.7198C54.6189 74.0273 54.4898 74.4253 54.5206 74.8274C54.5513 75.2295 54.7395 75.6032 55.0441 75.8674C55.3488 76.1316 55.7454 76.265 56.1477 76.2385C56.5501 76.2121 56.9259 76.028 57.1933 75.7262C57.3465 75.5512 57.4978 75.3701 57.6475 75.189C57.7833 75.0349 57.8868 74.855 57.9517 74.6602C58.0166 74.4653 58.0416 74.2593 58.0253 74.0545C58.009 73.8498 57.9516 73.6504 57.8566 73.4682C57.7617 73.2861 57.631 73.1249 57.4725 72.9943C57.3139 72.8637 57.1307 72.7664 56.9337 72.708C56.7368 72.6497 56.5301 72.6316 56.326 72.6548C56.1219 72.678 55.9245 72.742 55.7457 72.8431C55.5668 72.9441 55.4102 73.0801 55.285 73.243H55.2823ZM58.463 71.5253C58.8184 71.7217 59.2372 71.7689 59.6274 71.6565C60.0177 71.5441 60.3472 71.2813 60.5437 70.926C63.8783 64.8832 64.8669 57.8228 63.3201 51.0966C61.7733 44.3703 57.7999 38.451 52.1606 34.4719C46.5214 30.4928 39.6126 28.7335 32.757 29.531C25.9015 30.3284 19.5809 33.6266 15.0056 38.7939C10.4303 43.9612 7.92172 50.6345 7.96018 57.5362C7.99864 64.4379 10.5814 71.0829 15.2141 76.1988C19.8467 81.3148 26.2036 84.5423 33.0676 85.2633C39.9316 85.9843 46.8204 84.1482 52.415 80.1065C52.7353 79.8653 52.9483 79.5081 53.0081 79.1116C53.068 78.7152 52.9699 78.311 52.735 77.9861C52.5001 77.6611 52.1471 77.4412 51.7519 77.3737C51.3566 77.3062 50.9507 77.3964 50.6212 77.625C45.6459 81.2154 39.5211 82.8449 33.4194 82.2016C27.3176 81.5582 21.6674 78.6872 17.5503 74.1381C13.4331 69.5889 11.1383 63.6812 11.1049 57.5457C11.0716 51.4102 13.3021 45.4779 17.3695 40.8843C21.437 36.2907 27.0556 33.3584 33.15 32.6488C39.2444 31.9391 45.3865 33.5019 50.4006 37.0381C55.4147 40.5743 58.9486 45.8353 60.3259 51.8144C61.7031 57.7934 60.8271 64.0703 57.8653 69.4437C57.768 69.6198 57.7063 69.8133 57.6837 70.0133C57.6612 70.2132 57.6783 70.4156 57.7341 70.6089C57.7898 70.8022 57.8831 70.9827 58.0086 71.1399C58.1342 71.2972 58.2894 71.4281 58.4656 71.5253H58.463ZM37.5312 44.0827V55.9976C39.6394 56.352 41.5539 57.4421 42.9345 59.0743C44.3152 60.7065 45.0728 62.7751 45.0728 64.913C45.0728 67.0508 44.3152 69.1194 42.9345 70.7516C41.5539 72.3838 39.6394 73.4739 37.5312 73.8283V77.7431C37.5312 78.1492 37.3699 78.5387 37.0827 78.8258C36.7955 79.113 36.4061 79.2743 36 79.2743C35.5938 79.2743 35.2044 79.113 34.9172 78.8258C34.63 78.5387 34.4687 78.1492 34.4687 77.7431V73.8213C32.3712 73.4544 30.4699 72.3605 29.0986 70.7314C27.7273 69.1023 26.9737 67.0423 26.97 64.913C26.97 64.5068 27.1313 64.1174 27.4184 63.8302C27.7056 63.543 28.0951 63.3817 28.5012 63.3817C28.9073 63.3817 29.2968 63.543 29.584 63.8302C29.8711 64.1174 30.0325 64.5068 30.0325 64.913C30.0356 66.229 30.4716 67.5075 31.2734 68.5511C32.0751 69.5948 33.1979 70.3457 34.4687 70.688V58.7801C32.3692 58.4171 30.4653 57.3243 29.093 55.6944C27.7207 54.0646 26.9682 52.0024 26.9682 49.8717C26.9682 47.741 27.7207 45.6788 29.093 44.049C30.4653 42.4191 32.3692 41.3263 34.4687 40.9633V37.0407C34.4687 36.6346 34.63 36.2451 34.9172 35.9579C35.2044 35.6708 35.5938 35.5095 36 35.5095C36.4061 35.5095 36.7955 35.6708 37.0827 35.9579C37.3699 36.2451 37.5312 36.6346 37.5312 37.0407V40.9563C39.638 41.314 41.5505 42.405 42.9308 44.0365C44.311 45.6679 45.07 47.7347 45.0737 49.8717C45.0737 50.2778 44.9124 50.6673 44.6252 50.9545C44.338 51.2416 43.9486 51.403 43.5425 51.403C43.1363 51.403 42.7469 51.2416 42.4597 50.9545C42.1725 50.6673 42.0112 50.2778 42.0112 49.8717C42.0089 48.5474 41.5681 47.2612 40.7576 46.2139C39.9471 45.1666 38.8126 44.4172 37.5312 44.0827ZM34.4687 44.0941C33.1964 44.4343 32.0719 45.185 31.2698 46.2297C30.4678 47.2744 30.033 48.5546 30.033 49.8717C30.033 51.1888 30.4678 52.469 31.2698 53.5137C32.0719 54.5584 33.1964 55.3091 34.4687 55.6493V44.0941ZM37.5312 59.124V70.702C38.8135 70.3693 39.949 69.6204 40.7596 68.5726C41.5702 67.5249 42.01 66.2377 42.01 64.913C42.01 63.5883 41.5702 62.301 40.7596 61.2533C39.949 60.2056 38.8135 59.4566 37.5312 59.124Z" fill="#157BC0"/>
</svg>
