<svg width="112" height="112" viewBox="0 0 112 112" fill="none" xmlns="http://www.w3.org/2000/svg">
<path d="M14.4077 56.0001C14.4191 46.8829 17.4199 38.021 22.9502 30.7727C28.4806 23.5244 36.2353 18.2897 45.0257 15.8708C45.2197 15.8179 45.4223 15.8038 45.6218 15.8291C45.8213 15.8545 46.0138 15.9189 46.1884 16.0187C46.363 16.1184 46.5163 16.2516 46.6394 16.4106C46.7626 16.5696 46.8532 16.7513 46.9061 16.9453C46.959 17.1394 46.9732 17.3419 46.9478 17.5414C46.9225 17.7409 46.8581 17.9335 46.7583 18.1081C46.6585 18.2827 46.5253 18.4359 46.3663 18.5591C46.2073 18.6822 46.0256 18.7728 45.8316 18.8257C37.1852 21.1919 29.6343 26.4986 24.4789 33.8322C19.3236 41.1659 16.8865 50.0674 17.5872 59.0043C18.2879 67.9413 22.0826 76.3542 28.3178 82.7948C34.5531 89.2353 42.8388 93.3004 51.7483 94.2901L49.3605 92.1376C49.0613 91.8651 48.8822 91.4852 48.8622 91.081C48.8423 90.6768 48.9832 90.2812 49.2541 89.9805C49.525 89.6799 49.9039 89.4987 50.308 89.4766C50.7121 89.4545 51.1085 89.5933 51.4106 89.8626L57.0255 94.9236C57.1991 95.0802 57.3345 95.2745 57.4214 95.4915C57.5083 95.7085 57.5444 95.9426 57.5268 96.1757C57.5092 96.4089 57.4385 96.6349 57.3201 96.8365C57.2016 97.038 57.0386 97.2098 56.8435 97.3386L49.931 101.903C49.7633 102.017 49.5745 102.097 49.3757 102.137C49.1769 102.178 48.9719 102.179 48.7728 102.14C48.5737 102.101 48.3843 102.022 48.2158 101.909C48.0472 101.796 47.9028 101.651 47.7909 101.481C47.6791 101.312 47.602 101.122 47.5641 100.923C47.5263 100.723 47.5285 100.518 47.5706 100.32C47.6126 100.121 47.6938 99.9331 47.8092 99.7662C47.9247 99.5993 48.0722 99.457 48.2431 99.3476L51.3135 97.3211C41.1652 96.1576 31.7983 91.3053 24.9939 83.6868C18.1894 76.0683 14.4219 66.2149 14.4077 56.0001ZM60.6873 14.6791L63.7568 12.6526C64.0956 12.429 64.3318 12.08 64.4132 11.6823C64.4947 11.2846 64.4149 10.8708 64.1913 10.532C63.9677 10.1932 63.6187 9.95711 63.221 9.87563C62.8233 9.79416 62.4095 9.874 62.0707 10.0976L55.1582 14.6616C54.963 14.7904 54.7999 14.9621 54.6814 15.1637C54.563 15.3654 54.4923 15.5914 54.4748 15.8246C54.4573 16.0578 54.4935 16.2919 54.5805 16.5089C54.6676 16.726 54.8033 16.9202 54.9771 17.0766L60.5893 22.1376C60.891 22.4096 61.2884 22.5506 61.694 22.5296C62.0997 22.5086 62.4804 22.3273 62.7523 22.0256C63.0243 21.7239 63.1653 21.3265 63.1443 20.9209C63.1233 20.5153 62.942 20.1346 62.6403 19.8626L60.2525 17.7101C69.1221 18.6947 77.375 22.7274 83.6022 29.1196C89.8295 35.5119 93.6449 43.8675 94.3972 52.7598C95.1495 61.6522 92.792 70.53 87.7271 77.8775C82.6623 85.2251 75.2041 90.5869 66.626 93.0476C66.4326 93.1029 66.252 93.1957 66.0945 93.3208C65.9369 93.4458 65.8056 93.6007 65.7079 93.7765C65.6103 93.9524 65.5482 94.1457 65.5252 94.3455C65.5023 94.5453 65.5189 94.7477 65.5742 94.9411C65.6295 95.1345 65.7223 95.3151 65.8474 95.4726C65.9724 95.6301 66.1273 95.7615 66.3031 95.8591C66.479 95.9568 66.6723 96.0189 66.8721 96.0418C67.0719 96.0648 67.2743 96.0481 67.4677 95.9929C76.7191 93.339 84.7638 87.559 90.2309 79.638C95.6979 71.717 98.249 62.1453 97.4492 52.5541C96.6494 42.9629 92.5483 33.9458 85.8448 27.0397C79.1414 20.1336 70.2505 15.7659 60.6873 14.6808V14.6791ZM29.8637 38.7381C29.6908 38.6352 29.4992 38.5674 29.3 38.5385C29.1008 38.5097 28.8979 38.5204 28.7029 38.5701C28.5078 38.6197 28.3245 38.7073 28.1634 38.8279C28.0022 38.9485 27.8664 39.0996 27.7637 39.2727C23.5944 46.3066 22.2003 54.6433 23.8541 62.651C25.508 70.6588 30.0908 77.761 36.7055 82.5677C43.3202 87.3744 51.4907 89.5394 59.6177 88.639C67.7447 87.7387 75.2431 83.8377 80.6454 77.6998C86.0476 71.5618 88.9647 63.6286 88.8256 55.4531C88.6866 47.2776 85.5015 39.4482 79.8937 33.4974C74.2859 27.5467 66.6591 23.903 58.5062 23.2795C50.3533 22.656 42.2612 25.0976 35.8137 30.1263C35.6552 30.2501 35.5226 30.4039 35.4235 30.5789C35.3244 30.7539 35.2608 30.9467 35.2362 31.1462C35.2116 31.3458 35.2266 31.5483 35.2803 31.7421C35.334 31.9359 35.4253 32.1173 35.549 32.2758C35.6728 32.4343 35.8265 32.5669 36.0015 32.666C36.1765 32.7651 36.3693 32.8287 36.5689 32.8533C36.7685 32.8779 36.971 32.8629 37.1648 32.8092C37.3586 32.7556 37.5399 32.6642 37.6985 32.5405C42.9163 28.4422 49.3651 26.2257 56 26.2501C62.5597 26.2528 68.9345 28.4244 74.1318 32.4268C79.3291 36.4292 83.0571 42.0378 84.7355 48.3792C86.4139 54.7206 85.9484 61.4391 83.4115 67.4884C80.8746 73.5378 76.4087 78.5786 70.7091 81.826C65.0095 85.0734 58.3962 86.3451 51.8987 85.4431C45.4012 84.5412 39.3843 81.5162 34.7848 76.8391C30.1852 72.162 27.2613 66.0953 26.4681 59.5837C25.6749 53.072 27.057 46.4808 30.3992 40.8363C30.6062 40.487 30.6661 40.0698 30.5657 39.6764C30.4653 39.283 30.2128 38.9455 29.8637 38.7381ZM33.5711 36.4543C33.7286 36.2741 33.8878 36.0947 34.0497 35.918C34.315 35.617 34.4515 35.2239 34.4299 34.8233C34.4084 34.4227 34.2304 34.0466 33.9344 33.7758C33.6384 33.505 33.248 33.3612 32.847 33.3753C32.4461 33.3894 32.0667 33.5603 31.7905 33.8512C31.6155 34.0455 31.4405 34.2415 31.2655 34.4392C31.126 34.5895 31.0181 34.7663 30.9483 34.959C30.8784 35.1518 30.8479 35.3567 30.8587 35.5614C30.8695 35.7662 30.9213 35.9667 31.0111 36.151C31.1008 36.3354 31.2266 36.4998 31.3811 36.6346C31.5356 36.7694 31.7156 36.8718 31.9104 36.9358C32.1053 36.9997 32.3109 37.0238 32.5153 37.0068C32.7196 36.9897 32.9184 36.9318 33.0999 36.8364C33.2814 36.7411 33.442 36.6103 33.572 36.4517L33.5711 36.4543ZM76.5266 69.07C76.1981 68.8311 75.7883 68.7325 75.3872 68.7956C74.986 68.8588 74.6264 69.0786 74.3872 69.4069C74.207 69.6545 74.0206 69.8995 73.8298 70.1392C73.701 70.2962 73.6046 70.4773 73.5464 70.6719C73.4883 70.8666 73.4694 71.0708 73.4909 71.2728C73.5124 71.4748 73.5739 71.6705 73.6717 71.8485C73.7696 72.0264 73.9019 72.1832 74.0609 72.3095C74.22 72.4359 74.4026 72.5294 74.5981 72.5845C74.7936 72.6396 74.9981 72.6552 75.1997 72.6305C75.4013 72.6058 75.596 72.5413 75.7725 72.4406C75.9489 72.3399 76.1035 72.2051 76.2273 72.0441C76.4452 71.7694 76.657 71.492 76.8635 71.2094C77.1023 70.8809 77.201 70.4711 77.1378 70.0699C77.0746 69.6688 76.8548 69.3091 76.5266 69.07ZM56 81.817C61.5493 81.8333 66.9537 80.0467 71.4 76.7262C71.5613 76.6061 71.6974 76.4555 71.8005 76.2828C71.9036 76.1101 71.9717 75.9188 72.0008 75.7198C72.03 75.5209 72.0197 75.3181 71.9705 75.1231C71.9213 74.9281 71.8342 74.7447 71.7141 74.5834C71.594 74.422 71.4433 74.2859 71.2707 74.1828C71.098 74.0797 70.9067 74.0117 70.7077 73.9825C70.5087 73.9533 70.3059 73.9636 70.1109 74.0128C69.9159 74.062 69.7325 74.1491 69.5712 74.2692C65.1669 77.5347 59.7297 79.0961 54.2638 78.6649C48.798 78.2337 43.6728 75.8391 39.835 71.9235C35.9972 68.0078 33.706 62.8356 33.3847 57.3621C33.0633 51.8887 34.7336 46.484 38.0869 42.1461C41.4401 37.8083 46.2499 34.8304 51.6278 33.7627C57.0056 32.6949 62.5882 33.6093 67.3443 36.337C72.1005 39.0647 75.7089 43.4214 77.503 48.6024C79.2971 53.7834 79.1557 59.4386 77.105 64.5235C77.0247 64.7107 76.9827 64.9121 76.9813 65.1158C76.9798 65.3196 77.0191 65.5215 77.0967 65.7099C77.1743 65.8982 77.2887 66.0692 77.4333 66.2128C77.5778 66.3564 77.7495 66.4697 77.9384 66.546C78.1272 66.6224 78.3294 66.6604 78.5331 66.6576C78.7368 66.6549 78.9379 66.6115 79.1247 66.53C79.3114 66.4486 79.48 66.3307 79.6206 66.1833C79.7612 66.0359 79.8709 65.8619 79.9435 65.6715C82.0154 60.5447 82.3868 54.8881 81.0028 49.5344C79.6189 44.1807 76.5528 39.4127 72.2558 35.9323C67.9588 32.4518 62.658 30.4428 57.1337 30.2009C51.6093 29.9591 46.1532 31.4971 41.5684 34.5886C36.9837 37.6802 33.5126 42.1619 31.666 47.3742C29.8195 52.5864 29.695 58.2538 31.3109 63.5421C32.9269 68.8304 36.1979 73.4602 40.6424 76.7501C45.087 80.04 50.4703 81.8161 56 81.817ZM57.5312 43.9645V54.6124C59.4709 54.9648 61.2253 55.9869 62.4885 57.5004C63.7518 59.0139 64.4438 60.9228 64.4438 62.8942C64.4438 64.8657 63.7518 66.7745 62.4885 68.288C61.2253 69.8015 59.4709 70.8236 57.5312 71.1761V74.6551C57.5312 75.0612 57.3699 75.4507 57.0827 75.7379C56.7956 76.025 56.4061 76.1864 56 76.1864C55.5938 76.1864 55.2044 76.025 54.9172 75.7379C54.63 75.4507 54.4687 75.0612 54.4687 74.6551V71.17C52.5395 70.8054 50.7979 69.7793 49.5441 68.2684C48.2902 66.7576 47.6027 64.8567 47.6 62.8933C47.6 62.4872 47.7613 62.0978 48.0485 61.8106C48.3356 61.5234 48.7251 61.3621 49.1312 61.3621C49.5373 61.3621 49.9268 61.5234 50.214 61.8106C50.5011 62.0978 50.6625 62.4872 50.6625 62.8933C50.664 64.0442 51.0351 65.1642 51.7211 66.0883C52.4072 67.0124 53.3719 67.6917 54.4731 68.0261V57.3817C52.5422 57.0206 50.7983 55.9956 49.5434 54.4843C48.2886 52.9729 47.6017 51.0704 47.6017 49.106C47.6017 47.1416 48.2886 45.239 49.5434 43.7277C50.7983 42.2163 52.5422 41.1914 54.4731 40.8302V37.3451C54.4731 36.939 54.6344 36.5495 54.9216 36.2623C55.2087 35.9752 55.5982 35.8138 56.0043 35.8138C56.4104 35.8138 56.7999 35.9752 57.0871 36.2623C57.3743 36.5495 57.5356 36.939 57.5356 37.3451V40.8241C59.4739 41.1796 61.2266 42.2027 62.4893 43.7157C63.752 45.2287 64.4451 47.1362 64.4481 49.1069C64.4481 49.513 64.2868 49.9024 63.9996 50.1896C63.7124 50.4768 63.3229 50.6381 62.9168 50.6381C62.5107 50.6381 62.1212 50.4768 61.8341 50.1896C61.5469 49.9024 61.3856 49.513 61.3856 49.1069C61.3837 47.9486 61.0074 46.8221 60.3128 45.8953C59.6181 44.9685 58.6424 44.2912 57.5312 43.9645ZM54.4687 43.9741C53.3668 44.3071 52.4014 44.9859 51.7152 45.9101C51.0291 46.8344 50.6586 47.9549 50.6586 49.106C50.6586 50.2571 51.0291 51.3776 51.7152 52.3018C52.4014 53.226 53.3668 53.9048 54.4687 54.2379V43.9741ZM57.5312 57.7501V68.0357C58.6432 67.7103 59.6197 67.0333 60.3145 66.1061C61.0092 65.1789 61.3847 64.0515 61.3847 62.8929C61.3847 61.7343 61.0092 60.6069 60.3145 59.6797C59.6197 58.7525 58.6432 58.0755 57.5312 57.7501Z" fill="#157BC0"/>
</svg>
